<?xml version="1.0" encoding="utf-8"?>
<!-- Generator: Adobe Illustrator 17.0.0, SVG Export Plug-In . SVG Version: 6.00 Build 0)  -->
<!DOCTYPE svg PUBLIC "-//W3C//DTD SVG 1.1//EN" "http://www.w3.org/Graphics/SVG/1.1/DTD/svg11.dtd">
<svg version="1.1" id="Layer_1" xmlns="http://www.w3.org/2000/svg" xmlns:xlink="http://www.w3.org/1999/xlink" x="0px" y="0px"
	 width="434px" height="122px" viewBox="93.5 332.5 434 122" enable-background="new 93.5 332.5 434 122" xml:space="preserve">
<path fill="#FFFFFF" d="M225.945,411.455l6.414-2.318c2.473,6.955,8.732,11.05,17.155,11.05c8.191,0,14.759-4.018,14.759-11.127
	c0-6.645-4.095-9.273-9.582-11.05l-11.745-3.323c-8.732-2.473-13.755-6.955-13.755-15.841c0-10.277,8.732-16.691,19.936-16.691
	c9.582,0,17.541,3.555,20.786,11.745l-6.105,2.473c-2.705-5.332-7.727-8.268-14.759-8.268c-6.336,0-12.905,3.245-12.905,10.2
	c0,4.868,2.936,8.268,10.277,10.432l11.823,3.323c7.341,2.009,12.905,6.491,12.905,16.382c0,10.586-8.809,18.005-22.023,18.005
	C237.845,426.291,228.805,421.191,225.945,411.455z M293.25,399.477l-20.091-36.164h7.727l15.918,29.364l15.764-29.364h7.65
	l-20.168,36.241v25.732h-6.8V399.477z M327.095,363.236h8.577l19.473,38.018h0.077l19.086-38.018h8.732v62.05h-6.8v-49.764h-0.155
	l-18.159,35.391h-5.564L334.205,375.6h-0.232v49.686h-6.8v-62.05H327.095z M398.495,363.159h23.8
	c10.818,0,17.773,5.255,17.773,15.377c0,6.491-3.864,12.209-10.818,14.141v0.077c8.268,1.468,12.595,7.805,12.595,15.145
	c0,11.668-9.195,17.309-18.855,17.309h-24.495L398.495,363.159L398.495,363.159z M420.441,390.514c6.955,0,12.75-3.477,12.75-10.895
	s-5.332-10.432-12.364-10.432h-15.3v21.327H420.441z M421.6,419.259c7.573,0,13.291-3.709,13.291-11.668
	c0-7.805-5.718-11.205-13.368-11.205h-15.918v22.873H421.6z M454.673,363.236h7.032v62.05h-7.032V363.236z M475.768,405.582v-21.173
	c0-14.064,10.818-22.409,23.568-22.409c13.214,0,23.645,7.882,23.645,21.482v20.477c0,13.986-10.664,22.409-23.491,22.409
	C486.509,426.368,475.768,419.182,475.768,405.582z M516.027,404.5v-21.25c0-9.427-6.955-14.991-16.923-14.991
	c-9.041,0-16.382,5.795-16.382,16.073v20.477c0,9.505,7.032,15.3,16.768,15.3C508.455,420.109,516.027,414.7,516.027,404.5z"/>
<path fill="#FFFFFF" d="M203.845,397.236l-2.086-3.168c3.323-4.095,5.641-8.964,6.723-14.218c1.932-8.886,0.232-18.005-4.714-25.655
	s-12.595-12.905-21.482-14.836c-8.886-1.932-18.005-0.232-25.655,4.714l-3.168,2.009c-11.127-8.964-27.277-10.2-39.873-2.009
	c-15.764,10.2-20.323,31.373-10.123,47.214l2.086,3.168c-8.964,11.127-10.2,27.277-2.009,39.873
	c4.945,7.65,12.595,12.905,21.482,14.836c2.241,0.464,4.559,0.773,6.877,0.773c6.645,0.077,13.136-1.777,18.855-5.486l3.168-2.009
	c6.027,4.791,13.445,7.418,21.018,7.495c6.491,0.077,13.059-1.7,18.855-5.486C209.486,434.173,214.045,413,203.845,397.236z
	 M181.282,343.841c7.727,1.623,14.295,6.182,18.545,12.827c8.809,13.6,4.945,31.914-8.732,40.723l-23.027,14.914l-4.327-6.723
	l23.027-14.914c4.791-3.091,8.114-7.959,9.35-13.523c1.236-5.641,0.155-11.359-2.936-16.15s-7.959-8.114-13.523-9.35
	c-5.641-1.236-11.359-0.155-16.15,2.936l-1.7,1.082l-1.082-1.623c-1.159-1.7-2.395-3.323-3.786-4.791l2.164-1.391
	C165.75,343.686,173.632,342.218,181.282,343.841z M189.318,406.664c2.473,3.786,3.245,8.268,2.318,12.673
	c-0.927,4.405-3.555,8.114-7.264,10.586c-7.805,5.023-18.159,2.782-23.259-4.945l-7.959-12.364l6.8-4.405l7.959,12.364
	c1.236,1.932,3.245,3.323,5.486,3.786c0.618,0.155,1.159,0.155,1.777,0.232c1.7,0,3.323-0.464,4.791-1.391
	c1.932-1.236,3.323-3.245,3.786-5.486s0.077-4.636-1.236-6.568l-1.159-1.7l6.8-4.405L189.318,406.664z M131.595,411.223l4.405,6.8
	l-1.7,1.082c-1.855,1.236-4.405,0.695-5.641-1.159c-1.236-1.855-0.695-4.405,1.236-5.641L131.595,411.223z M127.345,408.441
	c-4.018,2.627-5.177,8.036-2.55,12.055c1.236,1.932,3.245,3.323,5.486,3.786c0.618,0.155,1.159,0.155,1.777,0.232
	c1.7,0,3.323-0.464,4.791-1.391l1.7-1.082l4.405,6.8l-1.7,1.082c-3.786,2.473-8.268,3.245-12.673,2.318s-8.114-3.555-10.586-7.264
	c-2.473-3.786-3.245-8.268-2.318-12.673s3.555-8.114,7.264-10.586l33.768-21.868l4.405,6.8L127.345,408.441z M129.818,376.605
	l-1.159-1.7c-1.236-1.855-0.695-4.405,1.236-5.641c0.927-0.618,2.009-0.773,3.091-0.541c1.082,0.232,1.932,0.85,2.55,1.777
	l1.159,1.7L129.818,376.605z M139.4,367.95c-1.236-1.932-3.245-3.323-5.486-3.786c-2.241-0.464-4.636-0.077-6.568,1.236
	c-4.018,2.627-5.177,8.036-2.55,12.055l1.159,1.7l-6.8,4.405l-1.159-1.7c-2.473-3.786-3.245-8.268-2.318-12.673
	c0.927-4.405,3.555-8.114,7.264-10.586c7.805-5.023,18.159-2.782,23.259,4.945l7.959,12.364l-6.8,4.405L139.4,367.95z
	 M165.595,389.277L165.595,389.277l14.295-9.273c4.018-2.627,5.177-8.036,2.55-12.055c-1.236-1.932-3.245-3.323-5.486-3.786
	c-2.241-0.464-4.636-0.077-6.568,1.236l-1.7,1.082l-4.405-6.8l1.7-1.082c3.786-2.473,8.268-3.245,12.673-2.318
	c4.405,0.927,8.114,3.555,10.586,7.264c2.473,3.786,3.245,8.268,2.318,12.673c-0.927,4.405-3.555,8.114-7.264,10.586l-33.768,21.868
	l-4.405-6.8L165.595,389.277z M175.641,377.145l-4.405-6.8l1.7-1.082c0.927-0.618,2.009-0.773,3.091-0.541
	c1.082,0.232,1.932,0.85,2.55,1.777c1.236,1.855,0.695,4.405-1.236,5.641L175.641,377.145z M177.495,411.841l1.159,1.7
	c0.618,0.927,0.773,2.009,0.541,3.014c-0.232,1.082-0.85,1.932-1.777,2.55c-1.855,1.236-4.405,0.695-5.641-1.236l-1.159-1.7
	L177.495,411.841z M116.064,347.936c13.6-8.809,31.914-4.945,40.723,8.732l14.914,23.027l-6.723,4.327l-14.914-23.027
	c-6.414-9.968-19.782-12.75-29.673-6.336c-4.791,3.091-8.114,7.959-9.35,13.523c-1.236,5.641-0.155,11.359,2.936,16.15l1.159,1.7
	l-1.623,1.005c-1.777,1.159-3.323,2.395-4.791,3.786l-1.391-2.164C98.523,375.059,102.464,356.745,116.064,347.936z
	 M125.955,444.527c-7.727-1.623-14.295-6.182-18.545-12.827c-8.809-13.6-4.945-31.914,8.732-40.723l23.027-14.914l4.327,6.723
	L120.468,397.7c-4.791,3.091-8.114,7.959-9.35,13.523c-1.236,5.641-0.155,11.359,2.936,16.15c3.091,4.791,7.959,8.114,13.523,9.35
	c1.468,0.309,2.859,0.464,4.327,0.464c4.173,0.077,8.268-1.159,11.823-3.477l1.7-1.082l1.082,1.623
	c1.159,1.7,2.395,3.323,3.786,4.791l-2.164,1.391C141.486,444.759,133.682,446.227,125.955,444.527z M191.173,440.509
	c-13.677,8.809-31.914,4.945-40.723-8.732l-14.914-23.027l6.723-4.327l14.914,23.027c4.095,6.259,10.895,9.736,17.85,9.814
	c4.095,0.077,8.191-1.082,11.9-3.477c4.791-3.091,8.114-7.959,9.35-13.523c1.236-5.641,0.155-11.359-2.936-16.15l-1.159-1.7
	l1.623-1.005c1.7-1.082,3.323-2.395,4.791-3.786l1.391,2.164C208.714,413.386,204.85,431.623,191.173,440.509z"/>
</svg>
