<?xml version="1.0" encoding="utf-8"?>
<!-- Generator: Adobe Illustrator 17.0.0, SVG Export Plug-In . SVG Version: 6.00 Build 0)  -->
<!DOCTYPE svg PUBLIC "-//W3C//DTD SVG 1.1//EN" "http://www.w3.org/Graphics/SVG/1.1/DTD/svg11.dtd">
<svg version="1.1" id="Layer_1" xmlns="http://www.w3.org/2000/svg" xmlns:xlink="http://www.w3.org/1999/xlink" x="0px" y="0px"
	 width="287px" height="59.75px" viewBox="0 0 287 59.75" enable-background="new 0 0 287 59.75" xml:space="preserve">
<path fill="#FFFFFF" d="M0.314,19.871v19.868h6.945h6.945v-6.433v-6.433l4.279,0.005l4.279,0.007l3.033,6.421l3.03,6.421l6.89,0.007
	l6.887,0.005v-0.617v-0.617l-3.919-7.572l-3.919-7.572l0.817-0.824c0.831-0.836,1.196-1.219,1.687-1.774
	c2.536-2.876,3.973-5.792,4.381-8.91c0.141-1.07,0.159-2.342,0.045-3.288C41.449,6.507,40.648,4.82,39.3,3.528
	c-0.686-0.658-1.449-1.177-2.427-1.658c-1.879-0.922-4.239-1.489-7.233-1.74c-1.487-0.123-0.526-0.116-15.477-0.123L0.314,0V19.871z
	 M24.496,9.37c1.324,0.171,2.059,0.447,2.619,0.981c0.567,0.543,0.812,1.247,0.812,2.347c0,0.798-0.11,1.504-0.36,2.299
	c-0.394,1.249-1.07,2.408-2.002,3.436l-0.286,0.317H19.74h-5.537v-4.717v-4.72l4.988,0.01C23.776,9.328,24.201,9.333,24.496,9.37z"
	/>
<path fill="#FFFFFF" d="M135.457,19.871V39.74h5.046h5.044l4.931-5.289c2.711-2.908,4.936-5.28,4.946-5.27s2.125,4.202,4.705,9.314
	l4.691,9.299h6.416h6.414v-0.61v-0.613l-6.776-13.286c-3.729-7.307-6.781-13.298-6.786-13.309c-0.005-0.014,2.092-2.285,4.659-5.046
	l4.663-5.02V9.303V8.695h-5.699h-5.702l-6.159,7.291l-6.159,7.291h-0.171h-0.173V11.639V0h-6.945h-6.945L135.457,19.871
	L135.457,19.871z"/>
<path fill="#FFFFFF" d="M178.579,15.955c0,10.443,0.01,16.095,0.024,16.352c0.109,1.79,0.519,3.181,1.281,4.361
	c0.469,0.725,1.247,1.504,2.018,2.018c1.937,1.292,4.758,1.978,8.444,2.052c2.725,0.055,5.49-0.099,7.603-0.426
	c1.817-0.281,3.194-0.671,4.915-1.391l0.159-0.069v-3.319v-3.319h-3.484c-2.055,0-3.643-0.01-3.867-0.024
	c-1.017-0.065-1.677-0.229-2.153-0.536c-0.66-0.424-0.963-1.077-1.028-2.216c-0.014-0.233-0.024-2.847-0.024-6.19v-5.783h5.277
	c2.901,0,5.277-0.005,5.277-0.01c0-0.022,1.168-8.603,1.18-8.682l0.014-0.077h-5.875h-5.873V4.349V0h-6.945h-6.945
	C178.578,0,178.578,15.956,178.579,15.955z"/>
<path fill="#FFFFFF" d="M65.265,7.64c-0.045,0.005-0.351,0.019-0.68,0.033c-2.094,0.093-4.357,0.42-6.19,0.896
	c-5.01,1.299-8.632,3.91-10.703,7.718c-1.078,1.985-1.684,4.217-1.85,6.802c-0.036,0.583-0.014,2.577,0.036,3.228
	c0.231,2.981,0.812,5.152,1.884,7.053c0.764,1.355,1.814,2.552,3.085,3.52c2.785,2.119,6.871,3.355,12.342,3.736
	c1.677,0.117,4.31,0.158,6.231,0.096c5.716-0.184,10.436-0.949,14.689-2.378c0.3-0.099,0.419-0.15,0.424-0.181
	c0.007-0.033-1.043-7.588-1.058-7.61c-0.002-0.005-0.358,0.036-0.786,0.089c-4.443,0.543-8.492,0.788-12.983,0.791
	c-1.851,0-2.771-0.022-3.752-0.089c-3.56-0.238-4.954-1.035-5.492-3.14c-0.079-0.307-0.162-0.767-0.193-1.058l-0.017-0.147H71.51
	h11.258l0.121-0.413c0.446-1.511,0.773-3.2,0.932-4.818c0.097-0.98,0.109-1.227,0.109-2.383c0-0.939-0.007-1.216-0.043-1.537
	c-0.167-1.521-0.477-2.652-1.035-3.782c-1.308-2.652-3.808-4.465-7.56-5.485c-1.921-0.522-4.157-0.828-6.826-0.932
	C67.951,7.627,65.497,7.62,65.265,7.64z M67.24,16.298c1.215,0.068,1.999,0.205,2.621,0.457c0.931,0.377,1.451,0.994,1.641,1.956
	c0.072,0.355,0.098,0.72,0.098,1.344v0.555h-5.647h-5.647l0.012-0.055c0.005-0.029,0.029-0.152,0.048-0.276
	c0.152-0.913,0.467-1.744,0.865-2.29c0.772-1.061,2.022-1.578,4.09-1.689C65.842,16.27,66.759,16.27,67.24,16.298z"/>
<path fill="#FFFFFF" d="M106.041,7.65c-4.107,0.114-8.057,0.443-11.758,0.979c-1.073,0.154-2.871,0.455-2.9,0.483
	c-0.006,0.007,1.232,8.759,1.242,8.773c0.002,0.002,0.169-0.022,0.372-0.053c2.18-0.329,5.357-0.639,8.005-0.781
	c1.613-0.089,2.016-0.098,4.253-0.098c2.292,0,2.701,0.012,3.55,0.098c1.665,0.169,2.333,0.548,2.573,1.463
	c0.097,0.372,0.109,0.548,0.123,1.84l0.012,1.257h-4.308c-5.258,0-6.039,0.019-7.8,0.193c-5.504,0.541-8.597,2.347-9.662,5.644
	c-0.312,0.964-0.44,1.868-0.443,3.085c0,0.769,0.048,1.317,0.169,1.978c0.474,2.561,1.946,4.763,4.157,6.214
	c1.911,1.254,4.255,1.939,6.887,2.013c2.397,0.069,4.799-0.202,6.529-0.736c1.973-0.609,3.419-1.54,4.51-2.905
	c0.173-0.219,0.548-0.757,0.675-0.976l0.062-0.106l0.072,0.226c0.276,0.879,0.769,1.692,1.408,2.328
	c1.371,1.363,3.504,2.091,6.351,2.17c0.66,0.019,1.994-0.002,2.549-0.043c2.823-0.197,4.823-0.713,6.584-1.696l0.267-0.147v-3.319
	v-3.319h-1.308c-1.586,0-1.906-0.026-2.225-0.178c-0.365-0.175-0.522-0.51-0.565-1.215c-0.014-0.234-0.024-3.073-0.024-7.315
	c0-7.31,0-7.232-0.104-7.982c-0.286-2.016-1.146-3.65-2.54-4.825c-1.492-1.256-3.597-2.095-6.464-2.576
	c-1.32-0.219-2.686-0.354-4.604-0.452C111.051,7.636,107.001,7.622,106.041,7.65z M111.508,30.029v2.009l-0.231,0.098
	c-1.032,0.434-2.076,0.622-3.708,0.665c-1.282,0.036-2.222-0.126-2.981-0.512c-0.585-0.298-1.005-0.696-1.253-1.189
	c-0.121-0.242-0.183-0.429-0.231-0.715c-0.033-0.201-0.036-0.274-0.012-0.541c0.103-1.108,0.821-1.651,2.388-1.806
	c0.044-0.005,1.42-0.012,3.057-0.012l2.971-0.005C111.508,28.02,111.508,30.029,111.508,30.029z"/>
<path fill="#FFFFFF" d="M226.648,7.663c-5.65,0.279-10.126,1.689-13.414,4.224c-3.234,2.494-5.204,6.092-5.659,10.328
	c-0.079,0.737-0.1,1.187-0.098,2.064c0,0.87,0.024,1.437,0.086,2.149c0.485,5.506,2.847,9.369,7.16,11.698
	c2.487,1.344,5.653,2.175,9.47,2.485c2.32,0.188,5.046,0.178,7.195-0.022c6.343-0.596,11.127-2.797,14.165-6.519
	c1.915-2.341,3.071-5.392,3.285-8.66c0.084-1.255,0.038-2.788-0.118-4.133c-0.803-6.871-4.681-11.081-11.779-12.789
	c-1.857-0.447-3.873-0.713-6.288-0.827C229.717,7.615,227.563,7.617,226.648,7.663z M229.482,17.831
	c2.962,0.31,4.401,1.463,4.882,3.91c0.169,0.863,0.233,2.042,0.183,3.371c-0.075,2.049-0.345,3.16-0.959,3.972
	c-0.815,1.076-2.273,1.506-5.118,1.509c-1.025,0.002-1.549-0.033-2.311-0.159c-1.48-0.243-2.57-0.805-3.252-1.675
	c-0.608-0.779-0.933-1.769-1.072-3.268c-0.065-0.675-0.05-2.395,0.024-3.212c0.154-1.696,0.541-2.701,1.3-3.386
	c0.703-0.632,1.735-0.957,3.429-1.082C227.167,17.765,228.995,17.779,229.482,17.831z"/>
<path fill="#FFFFFF" d="M272.301,10.532c-4.568,2.783-4.765,2.902-4.791,2.852c-0.014-0.029-0.418-1.097-0.894-2.371l-0.867-2.316
	h-5.461h-5.464V24.22v15.523h6.945h6.945v-8.814v-8.814l1.889-0.879c1.037-0.483,3.198-1.492,4.799-2.237l2.913-1.355v-5.01v-5.01
	l-0.624,0.002l-0.627,0.002L272.301,10.532z"/>
</svg>
