<?xml version="1.0" encoding="utf-8"?>
<!-- Generator: Adobe Illustrator 17.0.0, SVG Export Plug-In . SVG Version: 6.00 Build 0)  -->
<!DOCTYPE svg PUBLIC "-//W3C//DTD SVG 1.1//EN" "http://www.w3.org/Graphics/SVG/1.1/DTD/svg11.dtd">
<svg version="1.1" id="Layer_1" xmlns="http://www.w3.org/2000/svg" xmlns:xlink="http://www.w3.org/1999/xlink" x="0px" y="0px"
	 width="242.202px" height="123.854px" viewBox="0 0 242.202 123.854" enable-background="new 0 0 242.202 123.854"
	 xml:space="preserve">
<g>
	<path fill="#FFFFFF" d="M44.091,75.653V57.979c0-5.731-3.761-7.71-9.027-7.71c-5.153,0-9.445,2.188-9.445,7.875h5.645
		c0-2.457,1.304-3.806,3.8-3.806c2.863,0,3.494,2.075,3.494,4.529v2.451c-5.632,0.156-13.868,0.942-13.868,8.398
		c0,4.221,3.339,6.514,7.296,6.514c2.714,0,5.214-0.887,6.472-3.441h0.1v2.865H44.091z M33.394,72.161
		c-1.934,0-3.072-0.998-3.072-2.979c0-3.738,5.476-4.479,8.236-4.479C38.558,67.886,37.251,72.161,33.394,72.161z"/>
	<path fill="#FFFFFF" d="M57.963,50.269c-7.442,0-11.366,4.684-11.366,11.877c0,8.654,4.434,14.084,13.291,14.084
		c2.455,0,4.903-0.41,7.252-1.147v-3.544c-1.359,0.466-2.767,0.623-4.164,0.623c-6.583,0-10.226-4.797-10.226-11.05
		c0-2.968,1.095-6.773,4.747-6.773c3.02,0,3.75,2.448,3.75,4.999H67.4C67.4,53.235,64.017,50.269,57.963,50.269z"/>
	<path fill="#FFFFFF" d="M82.125,76.229c2.449,0,4.904-0.41,7.244-1.147v-3.544c-1.351,0.466-2.762,0.623-4.168,0.623
		c-6.565,0-10.226-4.797-10.226-11.05c0-2.968,1.104-6.773,4.751-6.773c3.021,0,3.754,2.448,3.754,4.999h6.158
		c0-6.102-3.397-9.068-9.441-9.068c-7.454,0-11.366,4.684-11.366,11.877C68.831,70.8,73.259,76.229,82.125,76.229z"/>
	<path fill="#FFFFFF" d="M104.069,76.229c2.35,0,4.708-0.258,6.929-0.99v-4.012c-1.46,0.518-3.171,0.934-4.735,0.934
		c-5.625,0-9.339-5.157-9.339-10.42h14.715v-1.414c0-6.045-3.128-10.059-9.438-10.059c-7.398,0-10.641,4.639-10.641,11.678
		C91.56,70.122,95.26,76.229,104.069,76.229z M101.763,53.957c2.669,0,4.402,1.628,4.402,4.283h-9.07
		C97.358,55.734,99.28,53.957,101.763,53.957z"/>
	<path fill="#FFFFFF" d="M127.904,56.16c0.979,0.936,0.883,4.11,0.883,5.314v14.179h5.802V58.45c0-4.268-2-8.182-6.739-8.182
		c-3.546,0-6.041,2.038-7.35,5.209h-0.101v-4.651h-5.799v24.827h5.799V64.915c0-3.343,1.668-9.229,5.826-9.229
		C126.818,55.687,127.473,55.734,127.904,56.16z"/>
	<path fill="#FFFFFF" d="M146.611,42.602l-5.763,2.344v5.881h-4.855v4.027h4.855v14.542c0,5.168,2.528,6.834,7.602,6.834
		c1.57,0,3.174-0.15,4.73-0.41v-4.074c-0.871,0.216-1.753,0.416-2.656,0.416c-3.605,0-3.914-2.659-3.914-5.582V54.854h7.371v-4.027
		h-7.371V42.602z"/>
	<path fill="#FFFFFF" d="M170.626,71.022h0.1v4.631h5.788V50.826h-5.788v10.746c0,3.343-1.671,9.228-5.85,9.228
		c-0.563,0-1.254-0.041-1.668-0.459c-0.995-0.945-0.883-4.128-0.883-5.318V50.826h-5.781v17.217c0,4.28,1.966,8.187,6.721,8.187
		C166.769,76.229,169.318,74.14,170.626,71.022z"/>
	<path fill="#FFFFFF" d="M186.053,55.419h-0.103v-4.593h-5.797v24.827h5.797V64.761c0-5.841,2.189-8.442,8.127-8.442v-6.05
		C189.914,50.269,187.974,51.989,186.053,55.419z"/>
	<path fill="#FFFFFF" d="M214.693,71.228c-1.457,0.518-3.181,0.934-4.734,0.934c-5.645,0-9.344-5.157-9.344-10.42h14.705v-1.414
		c0-6.045-3.125-10.059-9.437-10.059c-7.405,0-10.636,4.639-10.636,11.678c0,8.176,3.703,14.283,12.507,14.283
		c2.345,0,4.696-0.258,6.939-0.99V71.228z M205.458,53.957c2.668,0,4.39,1.628,4.39,4.283h-9.075
		C201.033,55.734,202.963,53.957,205.458,53.957z"/>
	<path fill="#FFFFFF" d="M135.986,25.796c0,0,11.559,4.478,13.215,5.123c-1.656,0.634-13.215,5.091-13.215,5.091v4.075l18.002-7.311
		v-3.741l-18.002-7.319V25.796z"/>
</g>
<g>
	<polygon fill="#FFFFFF" points="32.612,95.629 27.113,95.629 27.113,89.862 25.608,89.862 25.608,103.175 27.113,103.175 
		27.113,96.886 32.612,96.886 32.612,103.175 34.117,103.175 34.117,89.862 32.612,89.862 	"/>
	<rect x="36.197" y="89.862" fill="#FFFFFF" width="1.736" height="1.736"/>
	<rect x="36.409" y="93.989" fill="#FFFFFF" width="1.313" height="9.186"/>
	<path fill="#FFFFFF" d="M44.71,95.497h-0.038c-0.289-1.082-1.311-1.719-2.392-1.719c-2.509,0-3.146,2.875-3.146,4.863
		c0,2.064,0.578,4.533,3.107,4.533c1.137,0,2.083-0.654,2.431-1.757h0.038v1.621c0,1.97-0.655,3.052-2.779,3.052
		c-0.81,0-1.561-0.193-2.295-0.543v1.331c0.849,0.175,1.602,0.31,2.49,0.31c2.643,0,3.897-1.391,3.897-3.994v-9.205H44.71V95.497z
		 M42.511,102.075c-1.641,0-1.872-2.2-1.872-3.414c0-1.198,0.231-3.782,1.909-3.782c1.641,0,2.162,2.259,2.162,3.53
		C44.71,99.722,44.189,102.075,42.511,102.075z"/>
	<path fill="#FFFFFF" d="M52.212,93.778c-1.601,0-2.413,0.926-2.875,2.336h-0.039v-6.252h-1.312v13.313h1.312v-3.781
		c0-1.447,0.772-4.303,2.606-4.303c1.504,0,1.349,1.948,1.349,2.991v5.093h1.313v-6.559C54.566,95.168,53.832,93.778,52.212,93.778z
		"/>
	<path fill="#FFFFFF" d="M64.084,93.778c-1.1,0-2.084,0.715-2.393,1.777h-0.039v-1.566h-1.311v13.316h1.311v-5.636h0.039
		c0.347,1.119,1.236,1.718,2.412,1.718c2.509,0,3.126-2.895,3.126-4.884C67.229,96.364,66.728,93.778,64.084,93.778z
		 M63.776,102.288c-1.738,0-2.124-2.452-2.124-3.745c0-1.272,0.502-3.664,2.162-3.664c1.678,0,1.91,2.103,1.91,3.375
		C65.724,99.528,65.57,102.288,63.776,102.288z"/>
	<path fill="#FFFFFF" d="M71.878,93.778c-2.702,0-3.589,2.104-3.589,4.496c0,2.973,1.292,5.113,4.478,5.113
		c0.713,0,1.427-0.059,2.101-0.27v-1.082c-0.617,0.156-1.177,0.252-1.812,0.252c-2.258,0-3.263-2.025-3.263-4.034v-0.541h5.288
		v-0.442C75.081,95.245,74.019,93.778,71.878,93.778z M69.89,96.616c0.194-1.004,0.85-1.737,1.931-1.737
		c1.003,0,1.755,0.733,1.755,1.737H69.89z"/>
	<path fill="#FFFFFF" d="M78.012,95.767h-0.039v-1.777h-1.312v9.186h1.312v-3.802c0-2.005,0.733-4.185,3.106-4.185v-1.41
		C79.613,93.778,78.59,94.435,78.012,95.767z"/>
	<path fill="#FFFFFF" d="M86.868,90.903c0.465,0,0.889,0.097,1.332,0.252v-1.178c-0.521-0.115-1.042-0.172-1.562-0.172
		c-1.91,0-3.01,1.002-3.01,2.912v1.271h-1.543v1.102h1.543v8.084h1.312v-8.084h2.642v-1.102H84.94
		C84.94,92.409,84.784,90.903,86.868,90.903z"/>
	<path fill="#FFFFFF" d="M91.732,93.778c-2.836,0-3.743,2.354-3.743,4.824c0,2.469,0.907,4.785,3.743,4.785
		c2.855,0,3.782-2.297,3.782-4.785C95.514,96.114,94.587,93.778,91.732,93.778z M91.732,102.288c-1.909,0-2.238-2.238-2.238-3.706
		c0-1.464,0.329-3.703,2.238-3.703c1.91,0,2.277,2.22,2.277,3.703C94.009,100.069,93.661,102.288,91.732,102.288z"/>
	<path fill="#FFFFFF" d="M98.468,95.767h-0.039v-1.777h-1.311v9.186h1.311v-3.802c0-2.005,0.734-4.185,3.107-4.185v-1.41
		C100.07,93.778,99.048,94.435,98.468,95.767z"/>
	<path fill="#FFFFFF" d="M111.534,93.778c-1.294,0-2.219,0.926-2.605,2.104h-0.038c-0.097-1.369-0.946-2.104-2.316-2.104
		c-1.505,0-2.199,1.023-2.566,2.336h-0.039v-2.125h-1.312v9.186h1.312v-3.781c0-1.273,0.617-4.303,2.297-4.303
		c1.504,0,1.35,1.948,1.35,2.991v5.093h1.312v-3.781c0-1.273,0.598-4.303,2.296-4.303c1.505,0,1.351,1.948,1.351,2.991v5.093h1.311
		v-6.559C113.887,95.168,113.155,93.778,111.534,93.778z"/>
	<path fill="#FFFFFF" d="M118.947,93.778c-1.641,0-3.261,0.715-3.3,2.566h1.467c0.133-1.1,0.791-1.466,1.872-1.466
		c1.832,0,1.736,1.466,1.736,2.834v0.194c-0.309,0.059-0.598,0.059-0.907,0.059c-1.698,0-4.38,0.752-4.38,2.855
		c0,1.564,0.888,2.566,2.47,2.566c1.022,0,2.315-0.465,2.817-1.429h0.037v1.216h1.273v-6.443
		C122.033,94.685,121.031,93.778,118.947,93.778z M120.374,100.86c-0.384,0.828-1.214,1.428-2.141,1.428
		c-0.774,0-1.292-0.561-1.292-1.331c0-1.468,1.833-1.948,3.01-1.948h0.771C120.722,99.778,120.683,100.164,120.374,100.86z"/>
	<path fill="#FFFFFF" d="M128.322,93.778c-1.601,0-2.412,0.926-2.875,2.336h-0.039v-2.125h-1.312v9.186h1.312v-3.781
		c0-1.447,0.773-4.303,2.606-4.303c1.503,0,1.351,1.948,1.351,2.991v5.093h1.312v-6.559
		C130.676,95.168,129.941,93.778,128.322,93.778z"/>
	<path fill="#FFFFFF" d="M135.958,94.879c1.177,0,1.641,0.849,1.641,1.91h1.563c0-1.987-1.194-3.011-3.145-3.011
		c-2.816,0-3.744,2.084-3.744,4.594c0,3.066,1.565,5.016,4.727,5.016c0.679,0,1.275-0.059,1.912-0.252v-1.041
		c-0.48,0.153-0.983,0.193-1.485,0.193c-2.605,0-3.647-1.834-3.647-4.206C133.779,96.711,134.281,94.879,135.958,94.879z"/>
	<path fill="#FFFFFF" d="M143.312,93.778c-2.703,0-3.588,2.104-3.588,4.496c0,2.973,1.291,5.113,4.475,5.113
		c0.715,0,1.431-0.059,2.105-0.27v-1.082c-0.618,0.156-1.177,0.252-1.814,0.252c-2.258,0-3.262-2.025-3.262-4.034v-0.541h5.287
		v-0.442C146.515,95.245,145.455,93.778,143.312,93.778z M141.324,96.616c0.193-1.004,0.851-1.737,1.933-1.737
		c1.002,0,1.754,0.733,1.754,1.737H141.324z"/>
	<rect x="147.566" y="101.247" fill="#FFFFFF" width="1.928" height="1.928"/>
	<path fill="#FFFFFF" d="M157.765,89.862h-2.99v13.313h2.508c0.928,0,1.892-0.057,2.779-0.365c2.702-0.926,3.164-3.801,3.164-6.33
		C163.226,92.64,162.049,89.862,157.765,89.862z M159.56,101.556c-0.695,0.309-1.504,0.364-2.257,0.364h-1.024V91.116h0.85
		c0.732,0,1.506,0.039,2.181,0.289c2.082,0.732,2.278,3.222,2.278,5.093C161.588,98.254,161.412,100.705,159.56,101.556z"/>
	<path fill="#FFFFFF" d="M168.01,93.778c-2.7,0-3.588,2.104-3.588,4.496c0,2.973,1.293,5.113,4.476,5.113
		c0.715,0,1.428-0.059,2.104-0.27v-1.082c-0.616,0.156-1.176,0.252-1.813,0.252c-2.258,0-3.263-2.025-3.263-4.034v-0.541h5.289
		v-0.442C171.215,95.245,170.152,93.778,168.01,93.778z M166.021,96.616c0.196-1.004,0.852-1.737,1.932-1.737
		c1.004,0,1.756,0.733,1.756,1.737H166.021z"/>
	<rect x="172.919" y="89.862" fill="#FFFFFF" width="1.313" height="13.313"/>
	<rect x="176.357" y="89.862" fill="#FFFFFF" width="1.735" height="1.736"/>
	<rect x="176.568" y="93.989" fill="#FFFFFF" width="1.313" height="9.186"/>
	<polygon fill="#FFFFFF" points="183.068,101.247 183.031,101.247 180.33,93.989 178.919,93.989 182.394,103.175 183.724,103.175 
		186.833,93.989 185.424,93.989 	"/>
	<path fill="#FFFFFF" d="M190.707,93.778c-2.7,0-3.588,2.104-3.588,4.496c0,2.973,1.291,5.113,4.478,5.113
		c0.712,0,1.425-0.059,2.101-0.27v-1.082c-0.617,0.156-1.176,0.252-1.811,0.252c-2.259,0-3.263-2.025-3.263-4.034v-0.541h5.287
		v-0.442C193.91,95.245,192.848,93.778,190.707,93.778z M188.719,96.616c0.192-1.004,0.849-1.737,1.931-1.737
		c1.002,0,1.754,0.733,1.754,1.737H188.719z"/>
	<path fill="#FFFFFF" d="M196.945,95.767h-0.039v-1.777h-1.31v9.186h1.31v-3.802c0-2.005,0.734-4.185,3.108-4.185v-1.41
		C198.547,93.778,197.525,94.435,196.945,95.767z"/>
	<path fill="#FFFFFF" d="M204.115,93.778c-2.701,0-3.59,2.104-3.59,4.496c0,2.973,1.293,5.113,4.479,5.113
		c0.713,0,1.427-0.059,2.103-0.27v-1.082c-0.617,0.156-1.179,0.252-1.813,0.252c-2.258,0-3.264-2.025-3.264-4.034v-0.541h5.287
		v-0.442C207.318,95.245,206.256,93.778,204.115,93.778z M202.126,96.616c0.195-1.004,0.852-1.737,1.932-1.737
		c1.002,0,1.756,0.733,1.756,1.737H202.126z"/>
	<path fill="#FFFFFF" d="M214.012,95.497h-0.039c-0.385-1.12-1.217-1.719-2.413-1.719c-2.507,0-3.125,2.895-3.125,4.883
		c0,2.141,0.504,4.727,3.145,4.727c1.099,0,2.086-0.713,2.394-1.775h0.039v1.563h1.311V89.862h-1.311V95.497z M211.835,102.288
		c-1.696,0-1.907-2.104-1.907-3.377c0-1.273,0.151-4.032,1.946-4.032c1.736,0,2.123,2.45,2.123,3.743
		C213.998,99.896,213.476,102.288,211.835,102.288z"/>
	<rect x="217.025" y="101.247" fill="#FFFFFF" width="1.93" height="1.928"/>
</g>
</svg>
