<?xml version="1.0" encoding="utf-8"?>
<!-- Generator: Adobe Illustrator 17.0.0, SVG Export Plug-In . SVG Version: 6.00 Build 0)  -->
<!DOCTYPE svg PUBLIC "-//W3C//DTD SVG 1.1//EN" "http://www.w3.org/Graphics/SVG/1.1/DTD/svg11.dtd">
<svg version="1.1" id="svg5358" xmlns:svg="http://www.w3.org/2000/svg"
	 xmlns="http://www.w3.org/2000/svg" xmlns:xlink="http://www.w3.org/1999/xlink" x="0px" y="0px" width="1033.745px"
	 height="220.695px" viewBox="0 0 1033.745 220.695" enable-background="new 0 0 1033.745 220.695" xml:space="preserve">
<path id="path5056" fill="#FFFFFF" d="M1033.745,99.839v-18.18h-22.576V53.395l-0.76,0.234l-21.205,6.487l-0.417,0.127v21.415
	h-33.469V69.73c0-5.555,1.242-9.806,3.69-12.641c2.431-2.801,5.909-4.225,10.343-4.225c3.189,0,6.49,0.751,9.811,2.232l0.833,0.371
	V36.321l-0.391-0.144c-3.099-1.114-7.315-1.675-12.539-1.675c-6.585,0-12.569,1.432-17.786,4.272
	c-5.221,2.844-9.329,6.904-12.205,12.066c-2.867,5.156-4.323,11.111-4.323,17.701v13.116h-15.72v18.18h15.72v76.589h22.568V99.838
	h33.469v48.671c0,20.045,9.455,30.204,28.101,30.204c3.065,0,6.289-0.36,9.583-1.064c3.351-0.721,5.634-1.443,6.978-2.212
	l0.297-0.175v-18.349l-0.917,0.607c-1.225,0.818-2.75,1.484-4.539,1.979c-1.796,0.505-3.296,0.759-4.458,0.759
	c-4.369,0-7.6-1.178-9.606-3.5c-2.028-2.344-3.056-6.444-3.056-12.178V99.838L1033.745,99.839L1033.745,99.839z M866.634,160.26
	c-8.191,0-14.649-2.716-19.2-8.066c-4.579-5.378-6.899-13.044-6.899-22.784c0-10.049,2.32-17.914,6.901-23.386
	c4.554-5.436,10.95-8.195,19.014-8.195c7.825,0,14.054,2.635,18.515,7.836c4.485,5.228,6.76,13.03,6.76,23.196
	c0,10.291-2.14,18.196-6.36,23.484C881.175,157.594,874.874,160.26,866.634,160.26 M867.639,79.375
	c-15.628,0-28.04,4.579-36.889,13.61c-8.844,9.033-13.329,21.531-13.329,37.154c0,14.837,4.378,26.772,13.011,35.467
	c8.634,8.699,20.384,13.105,34.92,13.105c15.149,0,27.314-4.643,36.16-13.799c8.845-9.148,13.326-21.527,13.326-36.785
	c0-15.07-4.205-27.094-12.503-35.731C894.035,83.755,882.359,79.375,867.639,79.375 M781.036,79.375
	c-10.63,0-19.422,2.719-26.14,8.08c-6.758,5.393-10.185,12.466-10.185,21.025c0,4.449,0.74,8.401,2.196,11.753
	c1.465,3.364,3.732,6.324,6.744,8.809c2.99,2.465,7.602,5.048,13.718,7.674c5.139,2.115,8.972,3.905,11.407,5.315
	c2.38,1.381,4.07,2.771,5.024,4.124c0.926,1.324,1.398,3.135,1.398,5.372c0,6.366-4.768,9.464-14.579,9.464
	c-3.639,0-7.79-0.759-12.338-2.258c-4.55-1.496-8.801-3.648-12.634-6.406l-0.936-0.671v21.726l0.344,0.16
	c3.194,1.474,7.219,2.716,11.964,3.695c4.736,0.979,9.039,1.477,12.778,1.477c11.535,0,20.824-2.732,27.601-8.125
	c6.821-5.43,10.279-12.67,10.279-21.526c0-6.387-1.861-11.866-5.53-16.284c-3.643-4.383-9.965-8.405-18.785-11.961
	c-7.026-2.82-11.528-5.161-13.384-6.957c-1.79-1.736-2.699-4.191-2.699-7.3c0-2.756,1.121-4.964,3.425-6.753
	c2.321-1.798,5.551-2.711,9.604-2.711c3.76,0,7.607,0.594,11.432,1.757c3.824,1.164,7.181,2.723,9.985,4.63l0.921,0.63v-20.61
	l-0.354-0.152c-2.586-1.109-5.996-2.058-10.138-2.827C788.029,79.761,784.288,79.375,781.036,79.375 M685.878,160.26
	c-8.189,0-14.649-2.716-19.199-8.066c-4.58-5.378-6.896-13.041-6.896-22.784c0-10.049,2.319-17.914,6.901-23.386
	c4.55-5.436,10.945-8.195,19.013-8.195c7.823,0,14.051,2.635,18.514,7.836c4.485,5.228,6.76,13.03,6.76,23.196
	c0,10.291-2.141,18.196-6.361,23.484C700.419,157.594,694.121,160.26,685.878,160.26 M686.886,79.375
	c-15.631,0-28.044,4.579-36.889,13.61c-8.844,9.033-13.331,21.531-13.331,37.154c0,14.844,4.38,26.772,13.014,35.467
	c8.634,8.699,20.383,13.105,34.92,13.105c15.145,0,27.314-4.643,36.16-13.799c8.843-9.148,13.326-21.527,13.326-36.785
	c0-15.07-4.206-27.094-12.505-35.731C713.277,83.755,701.603,79.375,686.886,79.375 M602.409,98.07V81.658h-22.292v94.766h22.292
	v-48.476c0-8.244,1.869-15.015,5.556-20.13c3.641-5.054,8.494-7.615,14.417-7.615c2.008,0,4.261,0.331,6.703,0.986
	c2.416,0.651,4.166,1.357,5.199,2.101l0.936,0.679V81.496l-0.361-0.155c-2.076-0.882-5.013-1.327-8.729-1.327
	c-5.601,0-10.615,1.8-14.909,5.344c-3.769,3.115-6.494,7.386-8.576,12.713C602.645,98.07,602.409,98.07,602.409,98.07z
	 M540.196,79.375c-10.226,0-19.349,2.194-27.109,6.516c-7.775,4.332-13.788,10.519-17.879,18.385
	c-4.073,7.848-6.14,17.014-6.14,27.235c0,8.954,2.005,17.171,5.967,24.413c3.965,7.254,9.578,12.929,16.681,16.865
	c7.094,3.931,15.293,5.925,24.37,5.925c10.594,0,19.639-2.119,26.891-6.295l0.292-0.169v-20.423l-0.936,0.684
	c-3.285,2.393-6.956,4.303-10.906,5.679c-3.94,1.375-7.532,2.07-10.681,2.07c-8.747,0-15.769-2.738-20.866-8.132
	c-5.109-5.404-7.699-12.99-7.699-22.538c0-9.607,2.701-17.389,8.025-23.131c5.306-5.725,12.341-8.629,20.907-8.629
	c7.328,0,14.468,2.481,21.222,7.381l0.934,0.679V84.371l-0.301-0.17c-2.542-1.423-6.009-2.598-10.314-3.489
	C548.371,79.824,544.179,79.375,540.196,79.375 M473.715,81.659h-22.293v94.766h22.293V81.659z M462.796,41.287
	c-3.669,0-6.869,1.249-9.497,3.724c-2.64,2.483-3.98,5.608-3.98,9.295c0,3.63,1.324,6.698,3.938,9.114
	c2.598,2.409,5.807,3.63,9.54,3.63c3.731,0,6.954-1.221,9.582-3.626c2.646-2.42,3.987-5.487,3.987-9.118
	c0-3.559-1.305-6.653-3.879-9.195C469.917,42.574,466.656,41.288,462.796,41.287 M407.176,74.667v101.757h22.75V44.189H398.44
	l-40.022,98.22l-38.839-98.22H286.81v132.235h21.379V74.657h0.735l41.013,101.768h16.134l40.372-101.757L407.176,74.667
	L407.176,74.667z"/>
<path id="path5058" fill="#FFFFFF" d="M104.868,104.868H0V0h104.868V104.868z"/>
<path id="path5060" fill="#FFFFFF" d="M220.654,104.868H115.787V0h104.866V104.868z"/>
<path id="path5062" fill="#FFFFFF" d="M104.865,220.695H0V115.828h104.865V220.695z"/>
<path id="path5064" fill="#FFFFFF" d="M220.654,220.695H115.787V115.828h104.866V220.695z"/>
</svg>
