<?xml version="1.0" encoding="utf-8"?>
<!-- Generator: Adobe Illustrator 17.0.0, SVG Export Plug-In . SVG Version: 6.00 Build 0)  -->
<!DOCTYPE svg PUBLIC "-//W3C//DTD SVG 1.1//EN" "http://www.w3.org/Graphics/SVG/1.1/DTD/svg11.dtd">
<svg version="1.1" id="Layer_1" xmlns="http://www.w3.org/2000/svg" xmlns:xlink="http://www.w3.org/1999/xlink" x="0px" y="0px"
	 width="114.547px" height="98.857px" viewBox="22.634 35.916 114.547 98.857"
	 enable-background="new 22.634 35.916 114.547 98.857" xml:space="preserve">
<path fill="#FFFFFF" d="M73.915,37.896c0.403-0.344,1.442-0.053,2.093-0.149C75.604,38.091,74.565,37.799,73.915,37.896z"/>
<path fill="#FFFFFF" d="M79.446,37.896c-0.651-0.097-1.69,0.195-2.094-0.149C78.004,37.843,79.043,37.552,79.446,37.896z"/>
<path fill="#FFFFFF" d="M75.858,41.185c1.347-0.249,3.736-0.249,5.083,0C79.247,41.185,77.552,41.185,75.858,41.185z"/>
<path fill="#FFFFFF" d="M32.053,83.494c0,0.847,0,1.694,0,2.541C31.805,85.533,31.805,83.998,32.053,83.494z"/>
<path fill="#FFFFFF" d="M27.12,87.232c-0.249-0.801-0.249-2.638,0-3.439C27.12,84.939,27.12,86.086,27.12,87.232z"/>
<path fill="#FFFFFF" d="M125.792,83.793c0.345,0.503,0.052,1.643,0.149,2.393C125.596,85.685,125.889,84.544,125.792,83.793z"/>
<path fill="#FFFFFF" d="M30.11,86.035c0.05,0,0.1,0,0.149,0c0,0.499,0,0.998,0,1.496C29.918,87.323,30.204,86.49,30.11,86.035z"/>
<path fill="#FFFFFF" d="M78.848,134.773c-1.248,0.25-3.537,0.25-4.784,0C75.658,134.773,77.253,134.773,78.848,134.773z"/>
<path fill="#FFFFFF" d="M40.575,51.351c0.485-0.61,1.034-1.158,1.644-1.644C41.734,50.317,41.186,50.865,40.575,51.351z"/>
<path fill="#FFFFFF" d="M40.126,51.949c0.044-0.305,0.405-0.293,0.449-0.599c0.611-0.485,1.159-1.033,1.644-1.644
	c0.348-0.102,0.4-0.497,0.748-0.599C42.083,50.118,41.136,51.064,40.126,51.949z"/>
<path fill="#FFFFFF" d="M112.336,51.351c-0.61-0.485-1.159-1.033-1.645-1.644C111.303,50.192,111.851,50.74,112.336,51.351z"/>
<path fill="#FFFFFF" d="M109.945,49.108c0.347,0.102,0.4,0.497,0.747,0.599c0.486,0.61,1.034,1.158,1.645,1.644
	c0.044,0.306,0.405,0.294,0.449,0.599C111.776,51.064,110.829,50.118,109.945,49.108z"/>
<path fill="#FFFFFF" d="M42.818,52.397c0.536-0.661,1.133-1.259,1.794-1.794C44.076,51.264,43.478,51.861,42.818,52.397z"/>
<path fill="#FFFFFF" d="M108.599,50.455c0.71,0.584,1.358,1.232,1.943,1.942C109.833,51.813,109.184,51.164,108.599,50.455z"/>
<path fill="#FFFFFF" d="M43.565,56.284c0.686-0.809,1.433-1.557,2.243-2.242C45.123,54.853,44.375,55.6,43.565,56.284z"/>
<path fill="#FFFFFF" d="M45.808,54.042C53.269,47.295,63,42.039,75.858,41.185c1.694,0,3.389,0,5.083,0
	c8.216,0.512,15.458,3.004,21.081,6.579c-9.39-5.319-25.484-5.312-36.031-1.495c-10.438,3.777-18.499,10.838-24.07,18.986
	c-1.697,0.296-3.441,0.547-5.233,0.748c1.928-3.604,4.303-6.76,6.877-9.719C44.375,55.6,45.123,54.853,45.808,54.042z"/>
<path fill="#FFFFFF" d="M39.528,118.328c-0.835-0.297-0.66,1.603-1.196,2.093c-3.573,0.839-7.523,2.01-11.212,2.991
	c-1.138,0.302-2.485,0.947-3.439,0.299c0.615-0.966,2.261-0.882,3.439-1.196c3.375-0.903,7.275-2.062,10.764-2.99
	c5.3-14.732,10.357-29.709,15.398-44.702c23.783-4.123,47.319-8.494,71.164-12.558c0.953-2.235,1.724-4.654,2.541-7.026
	c0.726,1.097-0.135,2.604-0.598,3.887c-0.479,1.331-1.061,2.715-1.495,3.888c-1.26,0.334-2.934,0.255-3.887,0.896
	c-0.653-0.142-2.375,0.212-2.392,0.747c-0.018-0.796-0.554-0.304-0.747-0.299c-2.517,0.065-5.397,0.864-8.073,1.346
	c-18.204,3.282-37.67,6.753-55.915,10.017c-4.426,12.768-9.242,25.94-13.156,38.722C40.071,115.396,39.381,117.066,39.528,118.328z"
	/>
<path fill="#FFFFFF" d="M40.276,119.226c0.86,0.735,1.657,1.532,2.392,2.393C41.809,120.883,41.011,120.086,40.276,119.226z"/>
<path fill="#FFFFFF" d="M110.244,121.618c0.735-0.86,1.532-1.657,2.393-2.393C111.9,120.086,111.104,120.883,110.244,121.618z"/>
<path fill="#FFFFFF" d="M99.031,70.188c0.458-0.545,0.408,0.679,0.747,0.747c-2.728,8.236-5.565,16.362-8.372,24.52
	c-0.984-0.419-8.339,2.615-8.671,0.747c-0.031-0.173,0.038-0.267,0.149-0.299c2.551,0.009,5.341-1.038,8.073-1.346
	c2.854-8.01,5.505-16.223,8.372-24.22C99.326,70.193,99.147,70.223,99.031,70.188z"/>
<path fill="#FFFFFF" d="M113.383,104.724c-0.672,0.375-1.171,0.922-1.943,1.196c0.642-1.7,1.151-3.533,1.794-5.232
	c0.262-0.286,0.316-0.779,0.449-1.196c0.328-0.618,0.537-1.356,0.747-2.093c-23.725,6.027-48.17,12.628-72.061,18.987
	c0.247,0.376-0.136,1.3-0.299,2.093c-0.023,0.371,0.235,0.462,0.299,0.747c1.022,0.255,2.551-0.843,3.14,0.448
	c3.545,2.934,7.592,5.365,12.259,7.177c0.407,0.39,1.062,0.533,1.644,0.747c5.714,2.403,12.549,3.677,20.333,3.289
	c12.723-0.634,22.267-6.599,29.153-12.857c0.562-0.436,1.06-0.934,1.495-1.495c3.093-3.335,5.887-6.971,7.923-11.361
	c1.27-1.173,2.938-1.946,4.336-2.991c0.108,0.031,0.166-0.063,0.149-0.149c0.189,1.019-1.218,3.74-1.794,4.935
	c-2.167,4.488-5.598,8.982-8.372,12.259c-0.86,0.735-1.658,1.532-2.393,2.393c-7.96,6.889-17.346,12.355-31.396,13.155
	c-1.595,0-3.19,0-4.784,0c-14.05-0.8-23.435-6.267-31.396-13.155c-0.735-0.86-1.532-1.657-2.392-2.393
	c-0.053-0.495-0.448-0.649-0.748-0.897c-0.147-1.262,0.543-2.932,1.196-3.887c0.32,0.327,0.465,0.831,0.897,1.046
	c1.04-3.594,2.274-6.995,3.438-10.465c23.7-4.705,47.579-9.231,71.313-13.903c1.074-2.314,1.765-5.013,2.691-7.476
	c1.236,0.458,2.533,0.856,3.737,1.346c0.004,0.146,0.184,0.116,0.299,0.15c0.249-1,0.249-3.038,0-4.037
	c-0.095-0.503,0.192-1.39-0.15-1.645c-0.237-2.404-0.616-4.667-1.046-6.878c0.314-1.229,0.633-2.457,1.196-3.438
	c1.446,4.333,2.528,9.032,2.691,14.65c0.097,0.751-0.196,1.892,0.149,2.393c3.396,1.089,6.567,2.402,10.017,3.438
	C128.541,94.765,120.774,99.557,113.383,104.724z M125.194,91.866c0.551-0.196,0.998-0.497,1.345-0.897
	c-1.538-0.554-3.14-1.044-4.634-1.644c-0.551,2.04-1.778,4.202-1.944,6.13c0.478-0.469,1.167-0.728,1.645-1.196
	c1.016-0.28,1.373-1.219,1.794-2.093C123.987,92.599,124.901,92.482,125.194,91.866z"/>
<path fill="#FFFFFF" d="M113.234,100.688c-22.807,6.048-45.601,12.107-68.473,18.09c0.155,0.393,0.593,0.503,0.748,0.896
	c-0.589-1.291-2.117-0.193-3.14-0.448c-0.064-0.285-0.322-0.376-0.299-0.747c23.924-6.275,47.882-12.52,71.612-18.987
	C113.55,99.908,113.496,100.401,113.234,100.688z"/>
<path fill="#FFFFFF" d="M108.898,118.029c0.436-0.561,0.935-1.059,1.495-1.495C109.958,117.096,109.459,117.594,108.898,118.029z"/>
<path fill="#FFFFFF" d="M68.831,92.315c1.792,0.631-1.363,5.896-1.644,7.773c-5.68,1.028-11.844,2.5-17.791,3.439
	c-0.678,0.106-1.712,0.707-2.093-0.3c0-0.1,0-0.199,0-0.299c6.578-1.047,12.729-2.521,19.286-3.589
	c1.079-2.06,1.589-4.688,2.542-6.876C69.126,92.319,68.947,92.349,68.831,92.315z"/>
<path fill="#FFFFFF" d="M28.316,78.86c0,0.049,0,0.1,0,0.148c1.229,0.391,2.877-0.299,4.485-0.598
	c1.75-0.326,3.438-0.357,4.934-0.897c-0.132,0.417-0.187,0.91-0.449,1.196c-0.741,0.007-1.318,0.177-1.943,0.299
	c-0.678,3.21-1.765,6.808-1.645,10.316c-0.408,0.888-0.576,2.016-1.047,2.841c-0.146-2.097-0.532-3.954-0.598-6.131
	c0-0.847,0-1.694,0-2.541c0.004-1.428,0.271-2.358,0.299-4.036c-0.718,0.229-1.842,0.052-2.093,0.747
	c-0.072-0.615-1.127,0.093-1.645,0C28.53,79.833,27.867,79.27,28.316,78.86z"/>
<path fill="#FFFFFF" d="M70.027,98.595c2.779-0.41,5.255-1.124,8.073-1.495c1.125-2.862,2.098-5.875,3.139-8.821
	c0.934-0.313,2.142-0.351,2.99-0.747c-0.132,0.416-0.187,0.909-0.449,1.195c-0.708,0.04-1.152,0.344-1.943,0.3
	c-1.248,2.837-2.105,6.067-3.289,8.97c-2.802,0.388-5.364,1.016-8.073,1.495c-0.175-0.225-0.186-0.611-0.448-0.747
	C70.027,98.694,70.027,98.645,70.027,98.595z"/>
<path fill="#FFFFFF" d="M121.606,94.259c0.574-0.822,0.871-1.921,1.196-2.991c0.826,0.107,1.747,0.798,2.392,0.599
	c-0.293,0.616-1.207,0.732-1.794,0.3C122.979,93.04,122.622,93.979,121.606,94.259z"/>
<path fill="#FFFFFF" d="M108.898,115.04c0.835-0.959,1.732-1.857,2.691-2.692C110.754,113.308,109.857,114.206,108.898,115.04z"/>
<path fill="#FFFFFF" d="M112.486,107.564c7.957-4.802,16.454-11.154,24.519-15.848c0.63,0.78-0.602,1.348-1.046,1.646
	c-4.207,2.816-9.229,5.8-13.306,8.819c-1.397,1.045-3.066,1.818-4.336,2.991c-3.048,0.988-4.37,4.998-6.728,7.175
	c-0.959,0.835-1.856,1.733-2.691,2.692c-2.964,2.517-6.108,4.855-9.717,6.727c5.584-3.784,10.577-8.16,14.502-13.604
	c-0.407-0.093-0.701,0.677-0.897,0.299C112.754,108.181,112.186,107.685,112.486,107.564z"/>
<path fill="#FFFFFF" d="M57.768,126.851c0.691,0.105,1.292,0.302,1.794,0.598c-0.091,0.009-0.177,0.021-0.15,0.149
	C58.83,127.384,58.175,127.24,57.768,126.851z"/>
<path fill="#FFFFFF" d="M74.512,36.103c0.949-0.25,2.938-0.25,3.887,0C77.104,36.103,75.808,36.103,74.512,36.103z"/>
<path fill="#FFFFFF" d="M42.967,49.108c7.92-6.93,17.478-12.224,31.545-13.006c1.296,0,2.591,0,3.887,0
	c14.067,0.782,23.625,6.076,31.545,13.006c0.884,1.01,1.831,1.956,2.84,2.841c0.865,0.93,1.539,2.05,2.542,2.841
	c3.709-0.378,7.211-0.962,10.765-1.495c-0.852,2.338-1.626,4.753-2.542,7.026c-23.7,4.158-47.239,8.476-71.014,12.559
	c-5.337,14.796-10.276,29.99-15.549,44.851c-4.842,1.188-9.528,2.531-14.352,3.737c2.431-6.64,4.574-13.565,7.027-20.182
	c-1.381-4.151-2.35-8.715-2.542-14.054c0-1.146,0-2.293,0-3.439c-0.181-2.462,0.858-4.998,0.298-6.877
	c2.608-9.951,6.6-18.517,12.708-24.967C41.136,51.064,42.083,50.118,42.967,49.108z M41.921,65.255
	c23.508-3.403,47.025-6.796,70.715-10.017c0.298-0.766-1.405-2.069-2.094-2.841c-0.585-0.71-1.233-1.358-1.943-1.942
	c-7.234-6.671-16.072-11.736-29.153-12.56c-0.403-0.344-1.442-0.053-2.094-0.149c-0.448,0-0.896,0-1.345,0
	c-0.651,0.097-1.689-0.194-2.093,0.149c-13.167,0.838-22.053,5.954-29.302,12.708c-0.661,0.535-1.259,1.133-1.794,1.794
	c-3.813,3.911-6.881,8.567-9.12,14.054c1.006-0.139,2.048-0.243,2.99-0.448C38.48,65.802,40.224,65.551,41.921,65.255z
	 M37.735,77.514c0.122-0.629,0.815-1.471,0.448-2.093c-2.993,0.646-6.065,1.212-9.27,1.646c-0.257,0.539-0.519,1.074-0.598,1.794
	c-0.449,0.409,0.214,0.973,0.299,1.345c0.517,0.093,1.572-0.615,1.645,0c0,0.349,0,0.697,0,1.047
	c-0.348,1.297-0.05,3.238-0.149,4.783c0.094,0.455-0.191,1.288,0.149,1.496c0.129,3.01,0.476,5.804,1.346,8.073
	c0.219-1.276,0.864-2.127,1.046-3.438c0.471-0.825,0.639-1.953,1.047-2.841c1.081-3.653,2.352-7.117,3.588-10.615
	C37.548,78.424,37.603,77.931,37.735,77.514z"/>
<path fill="#FFFFFF" d="M94.247,93.66c7.102-1.121,13.872-2.573,20.781-3.887c2.851-7.813,5.544-15.784,8.223-23.771
	c1.034,0.819-0.279,1.889-0.149,3.14c-0.563,0.98-0.881,2.208-1.196,3.438c-2.343,5.831-4.157,12.188-6.429,18.091
	c-6.943,1.181-14.035,3.008-20.931,3.736C94.568,94.036,94.311,93.945,94.247,93.66z"/>
<path fill="#FFFFFF" d="M105.161,83.644c1.128-2.808,1.918-5.956,3.139-8.671c1.026-0.071,1.893-0.3,2.841-0.448
	c-0.131,0.416-0.187,0.909-0.449,1.195c-0.484-0.328-1.323,0.267-2.093,0.149c-0.801,2.588-1.797,4.98-2.542,7.625
	C105.881,83.666,105.529,83.664,105.161,83.644z"/>
<path fill="#FFFFFF" d="M84.978,79.159c-0.173,0.125-0.401,0.197-0.748,0.149c0.738-2.352,1.654-4.525,2.392-6.878
	C87.526,74.474,85.424,77.012,84.978,79.159z"/>
<path fill="#FFFFFF" d="M75.26,74.524c0.714,1.09-0.145,2.593-0.598,3.887c-0.472,1.346-1.009,2.76-1.496,3.888
	c-0.83,0.016-1.376,0.318-2.242,0.299c0.049-0.35,0.18-0.618,0.299-0.896c0-0.051,0-0.1,0-0.15c0.665,0.117,0.896-0.199,1.495-0.149
	C73.73,79.274,74.306,76.709,75.26,74.524z"/>
<path fill="#FFFFFF" d="M72.12,83.345c0.335,0.163,0.263,0.733,0.599,0.897c-0.86,2.229-1.636,4.544-2.393,6.877
	c-0.811,0.235-1.808,0.284-2.542,0.598c0.049-0.35,0.179-0.617,0.299-0.896c0.263-0.385,0.911-0.385,1.495-0.448
	C70.732,88.336,71.399,85.813,72.12,83.345z"/>
<path fill="#FFFFFF" d="M94.546,91.717c-0.28,0.033-0.991,0.386-1.196,0c2.881-7.933,5.428-16.2,8.373-24.069
	c5.558-1.07,11.269-1.988,16.894-2.991c0.017-0.535,1.739-0.889,2.392-0.747c-0.006,0.635,1.07,0.186,1.345,0.149
	c-2.702,8.012-5.488,15.94-8.222,23.922C107.541,89.164,100.974,90.372,94.546,91.717z M111.141,74.524
	c0.296-0.65,0.451-1.443,0.747-2.094c-1.651,0.144-3.047,0.541-4.634,0.748c-1.314,3.52-2.508,7.161-3.738,10.764
	c0.582-0.065,1.183-0.112,1.645-0.299c0.369,0.021,0.72,0.022,0.897-0.149c0.688-0.209,1.533-0.261,2.242-0.448
	c0.691-2.548,1.576-4.902,2.392-7.326C110.954,75.434,111.009,74.94,111.141,74.524z"/>
<path fill="#FFFFFF" d="M123.101,81.103c0.249,0.999,0.249,3.037,0,4.037c-0.116-0.034-0.295-0.005-0.299-0.15
	C123.483,84.275,122.914,82.311,123.101,81.103z"/>
<path fill="#FFFFFF" d="M30.259,81.252c0,1.595,0,3.189,0,4.783c-0.05,0-0.1,0-0.149,0C30.209,84.49,29.911,82.549,30.259,81.252z"
	/>
<path fill="#FFFFFF" d="M84.978,79.159c0.626-0.221,1.485-0.21,2.093-0.449c1.223-2.913,2.06-6.212,3.289-9.12
	c2.727-0.412,5.417-0.86,8.073-1.345c-0.091,0.757-0.38,1.313-0.598,1.943c-2.797,7.369-5.112,15.221-7.923,22.575
	c-2.312,0.229-4.284,0.8-6.429,1.196c-0.479,0.169-0.992,0.304-1.645,0.299c0.674-1.817,1.292-3.691,1.943-5.532
	c0.262-0.286,0.317-0.779,0.449-1.195c0.236-0.712,0.561-1.334,0.748-2.094c-1.612,0.232-2.999,0.688-4.634,0.897
	c-1.155,2.882-1.925,6.147-3.29,8.82c-2.015,0.526-4.337,0.746-6.279,1.346c-0.549,0.1-1.005,0.292-1.645,0.3
	c2.849-8.314,5.617-16.708,8.522-24.966c2.79-0.35,5.387-0.893,8.073-1.347c-0.051,0.796-0.438,1.257-0.598,1.943
	c-0.05,0-0.1,0-0.149,0c-0.688,2.501-1.758,4.621-2.392,7.177c0.64-0.009,1.095-0.2,1.645-0.299
	C84.577,79.356,84.804,79.284,84.978,79.159z"/>
<path fill="#FFFFFF" d="M47.452,100.987c-0.351,0.047-0.561,0.235-1.046,0.148c2.739-8.474,5.771-16.653,8.522-25.116
	c6.486-1.139,12.848-2.401,19.435-3.439c-0.177,0.57-0.397,1.099-0.598,1.646c-0.049,0-0.099,0-0.149,0
	c-0.463,1.877-1.121,3.563-1.794,5.232c-3.617,0.768-7.44,1.33-11.063,2.093c0,0.751-0.849,1.438-0.448,2.093
	c3.504-0.782,7.173-1.397,10.914-1.942c-0.12,0.278-0.25,0.547-0.299,0.896c0.015,0.463-0.183,0.714-0.299,1.046
	c-0.756,1.436-1.083,3.303-1.794,4.784c-3.695,0.691-7.421,1.351-11.063,2.094c-0.221,0.58-0.808,1.579-0.598,2.093
	c3.083-0.206,7.59-2.146,10.764-2.093c0.146,0.002,0.116,0.184,0.15,0.299c-0.12,0.279-0.25,0.547-0.299,0.896
	c0.063,0.313-0.102,0.396-0.149,0.599c-0.822,1.52-1.108,3.576-1.943,5.083C59.622,98.604,53.429,99.687,47.452,100.987z"/>
</svg>
