<?xml version="1.0" encoding="utf-8"?>
<!-- Generator: Adobe Illustrator 17.0.0, SVG Export Plug-In . SVG Version: 6.00 Build 0)  -->
<!DOCTYPE svg PUBLIC "-//W3C//DTD SVG 1.1//EN" "http://www.w3.org/Graphics/SVG/1.1/DTD/svg11.dtd">
<svg version="1.1" id="Layer_1" xmlns="http://www.w3.org/2000/svg" xmlns:xlink="http://www.w3.org/1999/xlink" x="0px" y="0px"
	 width="166.906px" height="40.965px" viewBox="0 0 166.906 40.965" enable-background="new 0 0 166.906 40.965"
	 xml:space="preserve">
<g>
	
		<text id="Slogan_5_" transform="matrix(1 0 0 1 28.2573 39.8887)" fill="#FFFFFF" font-family="'TitilliumText22L-XBold'" font-size="7.4755" letter-spacing="1">Rethinking commerce</text>
	<g id="Logo">
		<g>
			<path fill="#FFFFFF" d="M95.29,13.141c1.516-1.809,4.868-2.085,8.4-0.813c-0.768,0.481-1.529,1.051-2.256,1.711
				c-3.742,3.382-5.309,7.833-3.747,10.314c-0.249-0.226-0.487-0.465-0.719-0.717C94.303,20.688,93.777,16.554,95.29,13.141z"/>
		</g>
		<g>
			<path fill="#FFFFFF" d="M105.64,6.332c2.188,0.883,3.486,3.985,3.367,7.737c-0.696-0.583-1.474-1.128-2.323-1.617
				c-4.372-2.513-9.091-2.626-10.967-0.378c0.135-0.303,0.288-0.605,0.458-0.903C98.156,7.725,101.924,5.945,105.64,6.332z"/>
		</g>
		<g>
			<path fill="#FFFFFF" d="M115.307,14.064c-0.16,2.353-2.712,4.548-6.317,5.593c0.341-0.841,0.618-1.748,0.821-2.708
				c1.039-4.935-0.311-9.458-3.029-10.548c0.33,0.035,0.666,0.087,0.999,0.158C111.672,7.378,114.525,10.411,115.307,14.064z"/>
		</g>
		<g>
			<path fill="#FFFFFF" d="M110.929,25.645c-2.287,0.573-5.164-1.174-7.271-4.279c0.903,0.063,1.855,0.047,2.831-0.056
				c5.013-0.539,8.896-3.22,9.092-6.144c0.07,0.329,0.123,0.66,0.161,1.002C116.165,20.119,114.163,23.772,110.929,25.645z"/>
		</g>
		<g>
			<path fill="#FFFFFF" d="M98.574,25.072c-1.25-2-0.477-5.275,1.824-8.239c0.223,0.877,0.531,1.776,0.932,2.671
				c2.059,4.603,5.808,7.469,8.65,6.752c-0.291,0.167-0.59,0.321-0.902,0.459C105.448,28.343,101.355,27.565,98.574,25.072z"/>
		</g>
	</g>
	<text id="Type_4_" transform="matrix(1 0 0 1 0 25.5137)"><tspan x="0" y="0" fill="#FFFFFF" font-family="'TitilliumText22L-Bold'" font-size="34.9809" letter-spacing="-1">s</tspan><tspan x="15.671" y="0" fill="#FFFFFF" font-family="'TitilliumText22L-Bold'" font-size="34.9809" letter-spacing="-2">m</tspan><tspan x="43.375" y="0" fill="#FFFFFF" font-family="'TitilliumText22L-Bold'" font-size="34.9809" letter-spacing="-2">i</tspan><tspan x="49.987" y="0" fill="#FFFFFF" font-family="'TitilliumText22L-Bold'" font-size="34.9809" letter-spacing="-1">l</tspan><tspan x="57.787" y="0" fill="#FFFFFF" font-family="'TitilliumText22L-Bold'" font-size="34.9809" letter-spacing="-1">e</tspan><tspan x="74.368" y="0" fill="#FFFFFF" font-family="'TitilliumText22L-Bold'" font-size="34.9809" letter-spacing="22">h</tspan><tspan x="116.099" y="0" fill="#FFFFFF" font-family="'TitilliumText22L-Bold'" font-size="34.9809" letter-spacing="-1">u</tspan><tspan x="134.044" y="0" fill="#FFFFFF" font-family="'TitilliumText22L-Bold'" font-size="34.9809">s</tspan><tspan x="150.87" y="0" fill="#FFFFFF" font-family="'TitilliumText22L-Bold'" font-size="34.9809">e</tspan></text>
</g>
</svg>
