<?xml version="1.0" encoding="utf-8"?>
<!-- Generator: Adobe Illustrator 17.0.0, SVG Export Plug-In . SVG Version: 6.00 Build 0)  -->
<!DOCTYPE svg PUBLIC "-//W3C//DTD SVG 1.1//EN" "http://www.w3.org/Graphics/SVG/1.1/DTD/svg11.dtd">
<svg version="1.1" id="Layer_1" xmlns="http://www.w3.org/2000/svg" xmlns:xlink="http://www.w3.org/1999/xlink" x="0px" y="0px"
	 width="470.617px" height="250.663px" viewBox="366 242.406 470.617 250.663" enable-background="new 366 242.406 470.617 250.663"
	 xml:space="preserve">
<g>
	<g>
		<g>
			<path fill="#FFFFFF" d="M488.908,295.005c0,0,5.262,10.954-7.978,50.751c-13.646,41.018-21.449,44.602-25.263,48.194
				c-2.519,2.374-9.129,5.476-11.91,2.374c-2.782-3.103-7.745-8.258-7.745-8.258s7.672,10.158,15.977-1.418
				c6.413-8.943,13.6-25.346,17.475-41.623c3.433-14.422,9.775-56.325-0.959-59.865c-7.887-2.601-22.625,12.948-25.618,14.226
				s23.821-19.35,23.821-19.35l13.545,0.697l7.662,3.081L488.908,295.005z"/>
			<path fill="#FFFFFF" d="M542.34,279.013c0,0,5.992,9.955-6.348,45.676c-11.27,32.624-21.303,41.239-23.569,43.375
				c-2.267,2.136-8.218,4.929-10.72,2.136c-2.504-2.792-2.913-7.721-2.913-7.721s1.681,9.432,9.153-0.986
				c4.576-6.379,13.072-24.48,16.161-37.461c3.09-12.98,9.466-45.933-1.101-49.219c-7.149-2.223-19.392,6.993-22.086,8.144
				c-2.693,1.15,21.441-17.415,21.441-17.415l12.923,0.317l5.04,3.397L542.34,279.013z"/>
			<g>
				<g>
					<path fill="#FFFFFF" d="M488.957,286.989c1.162-4.733-2.988-20.686-15.895-20.667c-27.432,0.039-55.512,37.848-75.191,81.936
						C372.291,405.565,366,472.463,366,472.463l12.492,0.041c0,0,7.601-65.741,32.596-116.892
						c24.995-51.15,53.934-74.266,65.629-73.934c4.743,0.137,11.733,6.311,11.767,13.156L488.957,286.989z"/>
				</g>
			</g>
			<g>
				<g>
					<path fill="#FFFFFF" d="M542.75,282.261l0.147-0.272c0.274-10.235-0.073-25.477-11.894-26.982
						c-19.44-2.476-48.463,22.393-79.719,77.112s-17.724,70.06-7.602,70.184c8.625,0.104,18.298-14.676,18.32-14.712
						c-0.98,1.261-6.547,8.361-13.091,8.763c-6.776,0.418-1.587-29.578,17.461-62.748c23.208-40.414,56.378-66.879,67.097-64.599
						C539.293,270.245,538.685,270.628,542.75,282.261z"/>
				</g>
			</g>
			<g>
				<g>
					<path fill="#FFFFFF" d="M581.736,242.406c-19.297,6.741-49.447,25.323-73.249,69.244
						c-26.966,49.758-15.851,63.054-6.742,63.164c8.349,0.101,17.236-14.251,17.236-14.251s-5.118,8.352-12.528,8.898
						c-8.391,0.619,0.125-26.785,16.781-56.474c18.438-32.859,35.792-44.587,57.125-55.597L581.736,242.406z"/>
				</g>
			</g>
			<path fill="#FFFFFF" stroke="#686868" d="M411.477,277.637"/>
		</g>
		<g>
			<path fill="#FFFFFF" d="M499.779,472.069h-11.844v-45.863h-0.168c-6.467,16.379-13.188,31.164-19.823,45.863h-6.384
				c-6.3-14.699-12.684-29.484-18.816-45.863h-0.168v45.863h-9.492v-58.8H447.7c6.048,14.448,15.792,37.464,18.06,45.024h0.168
				c2.772-7.897,13.357-30.576,20.075-45.024h13.775v58.8H499.779z"/>
			<path fill="#FFFFFF" d="M518.68,452.077c-0.252,7.896,5.293,13.776,12.264,13.776c4.117,0,8.484-1.429,11.256-3.36l3.193,5.881
				c-5.713,3.359-11.678,4.703-16.465,4.703c-12.684,0-22.176-8.988-22.176-22.848c0-12.935,9.408-21.168,21.42-21.168
				c13.104,0,18.564,10.5,17.725,23.016L518.68,452.077L518.68,452.077z M535.396,446.029c0.42-6.384-1.85-10.752-7.393-10.752
				c-6.385,0-9.24,5.124-9.156,10.752H535.396z"/>
			<path fill="#FFFFFF" d="M566.559,430.069h11.004v5.713h-11.004v20.663c0,6.888,2.102,9.828,5.797,9.828
				c2.436,0,3.863-0.672,5.375-1.429l1.934,5.545c-3.277,1.764-7.309,2.688-11.004,2.688c-9.24,0-13.273-4.871-13.273-13.44v-23.855
				h-5.879v-5.713h5.879v-10.08l11.172-2.52L566.559,430.069L566.559,430.069z"/>
			<path fill="#FFFFFF" d="M595.455,437.462h0.168l2.268-3.276c1.344-1.765,3.779-5.124,7.225-5.124c2.52,0,5.207,1.344,7.559,3.779
				l-4.199,7.729c-1.848-0.924-3.023-1.428-5.293-1.428c-3.863,0-7.643,3.107-7.643,12.18v20.748h-11.172v-42h11.088v7.392H595.455z
				"/>
			<path fill="#FFFFFF" d="M610.658,450.565c0-13.607,10.752-21.504,22.008-21.504c11.34,0,22.092,7.896,22.092,21.504
				c0,13.02-8.904,22.512-22.092,22.512C619.563,473.077,610.658,463.585,610.658,450.565z M642.914,450.565
				c0-6.973-2.438-15.288-10.248-15.288c-7.645,0-10.164,8.315-10.164,15.288c0,7.393,2.183,16.296,10.164,16.296
				C640.813,466.861,642.914,457.958,642.914,450.565z"/>
			<path fill="#FFFFFF" d="M671.641,435.866h0.168c2.939-4.285,8.4-6.805,13.439-6.805c13.19,0,18.565,11.844,18.565,21.084
				c0,11.088-7.56,22.932-19.572,22.932c-5.123,0-9.492-2.52-12.6-6.216v26.208h-11.172v-63h11.172L671.641,435.866L671.641,435.866
				z M671.641,451.573c0,8.82,4.285,14.784,10.332,14.784c7.477,0,9.996-8.735,9.996-16.128c0-7.225-3.192-14.447-9.576-14.447
				C675.338,435.782,671.641,441.913,671.641,451.573z"/>
			<path fill="#FFFFFF" d="M708.853,450.565c0-13.607,10.752-21.504,22.008-21.504c11.34,0,22.092,7.896,22.092,21.504
				c0,13.02-8.904,22.512-22.092,22.512C717.758,473.077,708.853,463.585,708.853,450.565z M741.109,450.565
				c0-6.973-2.436-15.288-10.248-15.288c-7.644,0-10.164,8.315-10.164,15.288c0,7.393,2.184,16.296,10.164,16.296
				C739.01,466.861,741.109,457.958,741.109,450.565z"/>
			<path fill="#FFFFFF" d="M760.344,472.069v-61.74h11.172v61.74H760.344z"/>
			<path fill="#FFFFFF" d="M780.168,417.47c0-3.191,2.687-6.469,6.469-6.469c3.863,0,6.887,3.192,6.887,6.469
				c0,3.611-2.604,7.056-6.719,7.056C782.855,424.525,780.168,421.081,780.168,417.47z M792.432,430.069v42H781.26v-42H792.432z"/>
			<path fill="#FFFFFF" d="M821.16,468.038c-3.107,2.436-6.887,5.039-10.752,5.039c-6.551,0-12.012-5.039-12.012-12.768
				c0-7.98,5.797-12.516,15.541-15.288l9.91-2.94c-0.588-3.863-4.031-6.299-7.643-6.299c-4.789,0-8.148,1.764-11.088,4.283
				l-3.613-5.292c5.209-4.284,10.332-5.712,16.129-5.712c7.729,0,17.219,2.519,17.219,15.624v17.136
				c0,3.359,0.422,7.309,1.766,10.248h-11.844c-0.842-1.428-1.094-3.863-1.094-6.132L821.16,468.038z M817.633,449.726
				c-5.461,1.68-8.232,4.871-8.232,9.66c0,3.695,2.352,6.216,5.041,6.216c4.451,0,10.248-5.544,9.406-17.892L817.633,449.726z"/>
		</g>
	</g>
</g>
</svg>
