<?xml version="1.0" encoding="utf-8"?>
<!-- Generator: Adobe Illustrator 17.0.0, SVG Export Plug-In . SVG Version: 6.00 Build 0)  -->
<!DOCTYPE svg PUBLIC "-//W3C//DTD SVG 1.1//EN" "http://www.w3.org/Graphics/SVG/1.1/DTD/svg11.dtd">
<svg version="1.1" id="Layer_1" xmlns="http://www.w3.org/2000/svg" xmlns:xlink="http://www.w3.org/1999/xlink" x="0px" y="0px"
	 width="87.241px" height="100.713px" viewBox="32.419 36.303 87.241 100.713"
	 enable-background="new 32.419 36.303 87.241 100.713" xml:space="preserve">
<g>
	<g>
		<path fill="#FFFFFF" d="M77.129,107.34c-0.333,0-0.667,0-1,0C76.318,108.477,77.132,107.896,77.129,107.34
			c2.729,0.729,2.014-1.986,4-2c1.161-0.839,2.682-1.318,5-1c0.426,1.907,2.857,1.811,2,5c0.739,4.406-3.236,4.098-4,7
			c-1.376-0.043-2.195,0.473-3,1c-0.667,0-1.333,0-2,0c-4.406-0.594-6.462-3.537-8-7c0.427-4.572,1.521-8.479,1-14
			c-4.233-0.898-1.017,5.648-5,5c-0.224-0.775-0.027-1.972-1-2c0.012-1.32,1.753-0.912,2-2c0.003-1.003-0.81-1.189-1-2
			c-0.87-2.908-1.497-1.124-4-1c0.314-1.352,1.423-1.908,1-4c-0.39-1.427-1.2-1.688,0-3c3.236-1.234,0.764,3.236,4,2
			c0.229-3.563-1.438-5.229-5-5c-3.625,0.708-1.378,7.289-2,11c-1.278-0.055-1.385-1.281-3-1c-0.491,4.491,0.507,7.493,1,11
			c-1.759-0.24-2.279-1.72-2-4c-0.779-0.221-1.163-0.837-1-2c-0.055-1.277-1.282-1.385-1-3c-1.086-3.58-1.561-7.771-3-11
			c0-5,0-10,0-15c0.839-2.828,1.161-6.172,2-9c0.325-3.675,2.467-5.533,3-9c1.342-0.658,1.862-2.138,2-4
			c1.889-0.111,0.694-3.306,3-3c-0.191-4.191,4.909-3.091,4-8c4.116,1.05,2.565,5.129,1,8c0,7.333,0,14.667,0,22
			c0.319,2.348,1.58,3.753,1,7c0.314,1.352,1.423,1.91,1,4c1.651,0.015,0.56,2.774,2,3c3.614,0.947,1.395-3.938,2-6
			c0.779-0.221,1.163-0.837,1-2c-0.003-1.003,0.81-1.19,1-2c0.697-5.03-1.697-6.97-1-12c0.779,0.221,1.163,0.837,1,2
			c0.055,1.278,1.282,1.385,1,3c1.165-0.168,1.086-1.581,1-3c1.651-0.015,0.561-2.774,2-3c0.225-1.891-1.127-2.207-1-4
			c3.36-1.027,1.557,3.11,2,5c-0.043,1.376,0.471,2.196,1,3c0,4.333,0,8.667,0,13c-0.779-0.221-1.163-0.837-1-2
			c-1.388,0.184-1.04,2.419-1,4c0.048,1.92,0.891,3.873,1,5c1.122-0.211,1.557-1.109,2-2c0.057-0.61,0.148-1.184,1-1
			c0.225-0.776,0.027-1.973,1-2c0.246-3.087,1.014-5.653,2-8c0-7,0-14,0-21c0.021-2.356-1.723-2.944-1-6
			c-0.87-2.909-1.497-1.125-4-1c0.239-1.427,1.646-1.687,2-3c0.61-0.057,1.184-0.149,1-1c0.221-0.779,0.837-1.163,2-1
			c-0.473,3.14,2.691,2.642,3,5c0.211,1.122,1.11,1.557,2,2c0.057,0.61,0.148,1.184,1,1c0.225,0.776,0.027,1.973,1,2
			c-0.043,1.376,0.471,2.196,1,3c1.406,0.261,1.141,2.193,2,3c1.387,1.614,0.846,5.155,3,6c-0.061,3.727,1.008,6.325,2,9
			c0,3.667,0,7.333,0,11c0.043,1.376-0.471,2.196-1,3c0,1.667,0,3.334,0,5c-0.318,2.35-1.58,3.754-1,7c-1.165,0.169-1.086,1.581-1,3
			c-1.65,0.016-0.561,2.773-2,3c0.073,1.395-0.51,2.174-1,3c-0.09,0.152-0.87-0.13-1,0c-0.165,0.166,0.128,0.799,0,1
			c-0.454,0.713-0.443,1.424-1,2c-1.311-0.015-1.273-2.773,0-3c0-2,0-4,0-6c-0.012-1.008-1.752-1.257-2,0
			c-1.311-0.015-1.273-2.773,0-3c0-1.666,0-3.333,0-5c-0.521-1.479-1.479-2.52-2-4c-1.314,1.02-3.686,0.98-5,2c0,1.667,0,3.334,0,5
			c0.779-0.221,1.163-0.837,1-2c-0.003-1.003,0.811-1.189,1-2c1.122,0.213,1.557,1.11,2,2c1.01,0.012,1.258,1.754,0,2
			c0.225,0.775,0.027,1.973,1,2c-0.261,1.557-2.193,0.694-3,0c-0.224,0.775-0.027,1.973-1,2c-0.224,0.775-0.027,1.973-1,2
			c0.221,0.779,0.837,1.163,2,1c0.043,1.377-0.471,2.196-1,3c-3.701,0.701-2.494-3.506-4-5c-1.309-0.309-0.5,1.5-1,2
			c-0.086,0.086-0.969-0.1-1,0c-0.372,1.221,0.285,2.754,0,4c-0.779,0.223-1.163,0.838-1,2
			C76.964,104.51,77.043,105.921,77.129,107.34z M80.129,109.34c-0.934,1.066-3.689,0.313-3,3c1.745,1.57,3.857,1.008,5,0
			c1.76-0.24,2.279-1.72,2-4C82.387,108.266,81.02,108.563,80.129,109.34z"/>
		<path fill="#FFFFFF" d="M76.129,48.34c1.055-5.055-2.279-5.721-2-10c1.322,0.012,0.914,1.752,2,2c0.239,1.427,1.646,1.687,2,3
			C77.686,45.23,79.489,49.367,76.129,48.34z"/>
		<path fill="#FFFFFF" d="M76.129,48.34c0.329,2.337,1.202,4.131,2,6c-1.619-0.722-0.494,2.742-1,3c-1.705,0.869-0.529-4.755-3-5
			c-0.157-1.177,0.172-2.838-1-3c0.314-1.352,1.423-1.91,1-4C75.78,45.355,74.688,48.114,76.129,48.34z"/>
		<path fill="#FFFFFF" d="M61.129,95.34C64.124,95.542,60.172,99.493,61.129,95.34L61.129,95.34z"/>
		<path fill="#FFFFFF" d="M65.129,105.34c0.973,0.028,0.776,1.225,1,2c1.236,3.236-3.236,0.766-2,4c0.31,1.357,2.504,0.83,4,1
			c1.313-1.199,1.573-0.39,3,0c-0.027,0.973-1.224,0.775-2,1c0.184,0.852-0.39,0.943-1,1c-1.333,0-2.667,0-4,0
			c-0.839-1.16-1.319-2.681-1-5C62.4,106.611,65.116,107.327,65.129,105.34z"/>
	</g>
	<g>
		<path fill="#FFFFFF" d="M34.01,131.729v2.199h1.019c0.233,0,0.405-0.053,0.513-0.156c0.109-0.103,0.181-0.307,0.217-0.611h0.152
			v1.893h-0.152c-0.003-0.217-0.031-0.375-0.084-0.479c-0.054-0.102-0.128-0.178-0.223-0.229c-0.095-0.052-0.236-0.076-0.423-0.076
			H34.01v1.756c0,0.283,0.018,0.471,0.054,0.562c0.027,0.067,0.085,0.128,0.173,0.177c0.121,0.066,0.247,0.1,0.379,0.1h0.202v0.152
			h-2.399v-0.152h0.198c0.231,0,0.398-0.066,0.503-0.201c0.066-0.088,0.099-0.301,0.099-0.635v-3.612
			c0-0.283-0.018-0.47-0.054-0.562c-0.027-0.068-0.084-0.127-0.169-0.178c-0.118-0.064-0.245-0.099-0.379-0.099h-0.198v-0.151h4.16
			l0.054,1.229h-0.145c-0.071-0.262-0.154-0.453-0.25-0.575c-0.095-0.122-0.211-0.211-0.35-0.267s-0.354-0.082-0.646-0.082H34.01
			V131.729z"/>
		<path fill="#FFFFFF" d="M42.327,135.145h-2.165l-0.379,0.883c-0.093,0.217-0.14,0.379-0.14,0.486c0,0.084,0.041,0.159,0.122,0.225
			c0.081,0.064,0.256,0.105,0.526,0.125v0.152H38.53v-0.152c0.234-0.041,0.385-0.094,0.454-0.16c0.14-0.133,0.295-0.398,0.466-0.805
			l1.967-4.602h0.145l1.946,4.65c0.156,0.373,0.299,0.617,0.427,0.729c0.127,0.111,0.306,0.174,0.534,0.188v0.152h-2.206v-0.152
			c0.223-0.01,0.374-0.047,0.452-0.11s0.118-0.142,0.118-0.231c0-0.119-0.055-0.312-0.165-0.572L42.327,135.145z M42.211,134.839
			l-0.948-2.26l-0.973,2.26H42.211z"/>
		<path fill="#FFFFFF" d="M46.562,131.425h1.518l3.418,4.193v-3.226c0-0.344-0.039-0.558-0.115-0.644
			c-0.102-0.115-0.263-0.173-0.482-0.173h-0.194v-0.152h1.946v0.152h-0.198c-0.236,0-0.404,0.07-0.503,0.214
			c-0.061,0.089-0.091,0.289-0.091,0.603v4.713h-0.148l-3.686-4.502v3.442c0,0.345,0.037,0.558,0.111,0.644
			c0.104,0.115,0.265,0.174,0.482,0.174h0.198v0.152h-1.946v-0.152h0.194c0.239,0,0.408-0.071,0.507-0.215
			c0.061-0.088,0.091-0.289,0.091-0.603v-3.89c-0.163-0.188-0.285-0.313-0.369-0.375c-0.084-0.061-0.207-0.116-0.369-0.168
			c-0.08-0.024-0.201-0.037-0.363-0.037L46.562,131.425L46.562,131.425z"/>
		<path fill="#FFFFFF" d="M59.769,131.425l0.062,1.312h-0.157c-0.03-0.23-0.071-0.396-0.124-0.494
			c-0.085-0.16-0.199-0.277-0.34-0.354c-0.142-0.076-0.328-0.113-0.559-0.113h-0.788v4.271c0,0.344,0.037,0.559,0.111,0.643
			c0.104,0.117,0.266,0.174,0.482,0.174h0.194v0.152h-2.37v-0.152h0.198c0.236,0,0.404-0.07,0.503-0.215
			c0.061-0.088,0.091-0.287,0.091-0.602v-4.271H56.4c-0.261,0-0.447,0.02-0.557,0.059c-0.143,0.053-0.266,0.152-0.367,0.301
			s-0.162,0.35-0.182,0.602h-0.156l0.066-1.311L59.769,131.425L59.769,131.425z"/>
		<path fill="#FFFFFF" d="M65.339,135.145h-2.165l-0.379,0.883c-0.093,0.217-0.14,0.379-0.14,0.486c0,0.084,0.041,0.159,0.122,0.225
			c0.081,0.064,0.256,0.105,0.526,0.125v0.152h-1.761v-0.152c0.234-0.041,0.385-0.094,0.454-0.16
			c0.14-0.133,0.295-0.398,0.466-0.805l1.967-4.602h0.145l1.946,4.65c0.156,0.373,0.299,0.617,0.427,0.729
			c0.127,0.111,0.306,0.174,0.534,0.188v0.152h-2.206v-0.152c0.223-0.01,0.374-0.047,0.452-0.11s0.118-0.142,0.118-0.231
			c0-0.119-0.055-0.312-0.165-0.572L65.339,135.145z M65.224,134.839l-0.948-2.26l-0.973,2.26H65.224z"/>
		<path fill="#FFFFFF" d="M73.556,131.297v1.934h-0.152c-0.049-0.371-0.138-0.666-0.266-0.887c-0.128-0.22-0.31-0.395-0.546-0.523
			c-0.236-0.127-0.481-0.192-0.734-0.192c-0.286,0-0.522,0.087-0.709,0.263c-0.187,0.174-0.28,0.373-0.28,0.596
			c0,0.17,0.059,0.324,0.177,0.466c0.17,0.206,0.576,0.481,1.216,0.823c0.522,0.281,0.879,0.496,1.07,0.646s0.338,0.326,0.441,0.53
			c0.103,0.202,0.154,0.416,0.154,0.639c0,0.425-0.164,0.788-0.493,1.095c-0.329,0.308-0.751,0.461-1.268,0.461
			c-0.163,0-0.315-0.014-0.458-0.037c-0.085-0.014-0.262-0.064-0.53-0.15c-0.268-0.087-0.438-0.13-0.509-0.13
			c-0.069,0-0.123,0.021-0.163,0.062s-0.07,0.127-0.089,0.256h-0.152v-1.916h0.152c0.071,0.4,0.167,0.701,0.289,0.899
			c0.122,0.199,0.306,0.365,0.555,0.497c0.249,0.133,0.521,0.198,0.818,0.198c0.344,0,0.615-0.091,0.814-0.272
			c0.199-0.181,0.299-0.396,0.299-0.644c0-0.138-0.038-0.276-0.113-0.416c-0.076-0.142-0.193-0.271-0.353-0.392
			c-0.107-0.084-0.4-0.258-0.878-0.526s-0.818-0.481-1.021-0.642c-0.202-0.158-0.355-0.336-0.459-0.527
			c-0.104-0.192-0.157-0.403-0.157-0.635c0-0.401,0.154-0.748,0.462-1.037c0.308-0.291,0.699-0.436,1.175-0.436
			c0.297,0,0.612,0.072,0.944,0.219c0.154,0.068,0.263,0.104,0.326,0.104c0.072,0,0.13-0.021,0.175-0.063
			c0.045-0.043,0.082-0.129,0.109-0.259h0.154L73.556,131.297L73.556,131.297z"/>
		<path fill="#FFFFFF" d="M79.098,136.863v0.152h-2.396v-0.152H76.9c0.23,0,0.397-0.067,0.502-0.202c0.066-0.089,0.1-0.3,0.1-0.636
			v-3.611c0-0.283-0.018-0.471-0.054-0.561c-0.027-0.069-0.084-0.129-0.169-0.178c-0.121-0.066-0.248-0.1-0.379-0.1h-0.198v-0.152
			h2.396v0.152h-0.201c-0.229,0-0.396,0.066-0.5,0.201c-0.067,0.089-0.103,0.301-0.103,0.636v3.612c0,0.283,0.019,0.47,0.054,0.561
			c0.027,0.068,0.086,0.128,0.174,0.178c0.117,0.065,0.242,0.1,0.375,0.1H79.098z"/>
		<path fill="#FFFFFF" d="M85.279,135.145h-2.165l-0.38,0.883c-0.092,0.217-0.14,0.379-0.14,0.486c0,0.084,0.041,0.159,0.122,0.225
			c0.081,0.064,0.256,0.105,0.526,0.125v0.152h-1.761v-0.152c0.233-0.041,0.385-0.094,0.453-0.16
			c0.141-0.133,0.295-0.398,0.467-0.805l1.967-4.602h0.145l1.946,4.65c0.156,0.373,0.299,0.617,0.427,0.729
			c0.127,0.111,0.307,0.174,0.534,0.188v0.152h-2.206v-0.152c0.223-0.01,0.374-0.047,0.452-0.11s0.118-0.142,0.118-0.231
			c0-0.119-0.055-0.312-0.165-0.572L85.279,135.145z M85.164,134.839l-0.948-2.26l-0.973,2.26H85.164z"/>
		<path fill="#FFFFFF" d="M91.357,134.396v1.629c0,0.353,0.037,0.57,0.115,0.656c0.104,0.121,0.262,0.182,0.473,0.182h0.215v0.152
			h-2.396v-0.152h0.211c0.235,0,0.404-0.077,0.506-0.231c0.056-0.085,0.084-0.286,0.084-0.604v-3.612
			c0-0.353-0.037-0.569-0.111-0.655c-0.107-0.121-0.268-0.182-0.479-0.182h-0.209v-0.152h2.049c0.5,0,0.895,0.051,1.184,0.154
			s0.532,0.277,0.729,0.521c0.198,0.244,0.297,0.535,0.297,0.869c0,0.457-0.149,0.827-0.45,1.113
			c-0.302,0.286-0.728,0.43-1.276,0.43c-0.135,0-0.279-0.011-0.438-0.029C91.703,134.465,91.536,134.436,91.357,134.396z
			 M91.357,134.162c0.146,0.027,0.274,0.049,0.387,0.063s0.209,0.021,0.289,0.021c0.285,0,0.531-0.111,0.74-0.332
			c0.207-0.223,0.312-0.508,0.312-0.859c0-0.242-0.049-0.467-0.147-0.675c-0.1-0.207-0.239-0.362-0.42-0.466
			c-0.183-0.104-0.389-0.154-0.619-0.154c-0.141,0-0.32,0.025-0.541,0.078L91.357,134.162L91.357,134.162z"/>
		<path fill="#FFFFFF" d="M98.197,131.729v2.211h1.229c0.319,0,0.532-0.049,0.639-0.146c0.144-0.126,0.224-0.349,0.24-0.668h0.152
			v1.946h-0.152c-0.039-0.271-0.078-0.446-0.115-0.523c-0.049-0.096-0.131-0.172-0.244-0.227c-0.112-0.055-0.285-0.084-0.52-0.084
			h-1.229v1.845c0,0.247,0.011,0.397,0.033,0.451c0.021,0.054,0.061,0.097,0.114,0.128c0.056,0.031,0.16,0.048,0.313,0.048h0.947
			c0.316,0,0.547-0.022,0.688-0.065c0.144-0.045,0.281-0.131,0.413-0.26c0.17-0.171,0.345-0.429,0.523-0.771h0.164l-0.481,1.402
			h-4.31v-0.152h0.198c0.132,0,0.257-0.032,0.375-0.096c0.089-0.043,0.148-0.109,0.181-0.197c0.031-0.088,0.047-0.268,0.047-0.541
			v-3.633c0-0.354-0.036-0.572-0.107-0.654c-0.099-0.109-0.264-0.165-0.495-0.165h-0.198v-0.151h4.31l0.062,1.225h-0.16
			c-0.059-0.295-0.123-0.496-0.191-0.606c-0.07-0.11-0.174-0.192-0.313-0.252c-0.109-0.041-0.304-0.062-0.58-0.062h-1.533
			L98.197,131.729L98.197,131.729z"/>
		<path fill="#FFFFFF" d="M108.542,135.471l0.136,0.027l-0.478,1.518h-4.33v-0.152h0.21c0.236,0,0.404-0.076,0.507-0.23
			c0.058-0.088,0.086-0.291,0.086-0.609v-3.607c0-0.35-0.039-0.566-0.116-0.654c-0.106-0.121-0.267-0.183-0.478-0.183h-0.21v-0.151
			h2.531v0.151c-0.297-0.003-0.504,0.024-0.625,0.082c-0.119,0.058-0.201,0.131-0.245,0.219c-0.044,0.089-0.066,0.3-0.066,0.632
			v3.512c0,0.229,0.022,0.387,0.066,0.472c0.032,0.058,0.084,0.101,0.153,0.128c0.067,0.027,0.282,0.041,0.643,0.041h0.408
			c0.429,0,0.729-0.031,0.902-0.096c0.174-0.063,0.332-0.176,0.475-0.336C108.256,136.068,108.398,135.814,108.542,135.471z"/>
		<path fill="#FFFFFF" d="M113.577,136.863v0.152h-2.396v-0.152h0.197c0.23,0,0.398-0.067,0.503-0.202
			c0.066-0.089,0.099-0.3,0.099-0.636v-3.611c0-0.283-0.018-0.471-0.054-0.561c-0.026-0.069-0.084-0.129-0.169-0.178
			c-0.121-0.066-0.248-0.1-0.379-0.1h-0.197v-0.152h2.396v0.152h-0.202c-0.229,0-0.395,0.066-0.499,0.201
			c-0.067,0.089-0.103,0.301-0.103,0.636v3.612c0,0.283,0.018,0.47,0.054,0.561c0.026,0.068,0.085,0.128,0.173,0.178
			c0.118,0.065,0.243,0.1,0.375,0.1H113.577z"/>
		<path fill="#FFFFFF" d="M120.78,131.425l0.062,1.312h-0.156c-0.03-0.23-0.071-0.396-0.125-0.494
			c-0.084-0.16-0.199-0.277-0.34-0.354c-0.142-0.076-0.328-0.113-0.559-0.113h-0.788v4.271c0,0.344,0.037,0.559,0.11,0.643
			c0.104,0.117,0.267,0.174,0.482,0.174h0.194v0.152h-2.371v-0.152h0.198c0.236,0,0.404-0.07,0.503-0.215
			c0.061-0.088,0.091-0.287,0.091-0.602v-4.271h-0.672c-0.262,0-0.447,0.02-0.557,0.059c-0.144,0.053-0.267,0.152-0.367,0.301
			c-0.102,0.149-0.162,0.35-0.182,0.602h-0.156l0.065-1.311L120.78,131.425L120.78,131.425z"/>
	</g>
</g>
</svg>
